<?xml version="1.0" encoding="utf-8"?>
<!-- Generator: Adobe Illustrator 16.0.0, SVG Export Plug-In . SVG Version: 6.00 Build 0)  -->
<!DOCTYPE svg PUBLIC "-//W3C//DTD SVG 1.1//EN" "http://www.w3.org/Graphics/SVG/1.1/DTD/svg11.dtd">
<svg version="1.1" id="Layer_1" xmlns="http://www.w3.org/2000/svg" xmlns:xlink="http://www.w3.org/1999/xlink" x="0px" y="0px"
	 width="85.04px" height="364.25px" viewBox="0 0 85.04 364.25" enable-background="new 0 0 85.04 364.25" xml:space="preserve">
<path fill="none" stroke="#231F20" stroke-width="1.2944" stroke-linejoin="round" stroke-miterlimit="10" d="M35.32,302.173"/>
<circle fill="#BCCFC3" cx="20.926" cy="76.137" r="17.008"/>
<circle fill="#9AB7D2" cx="64.167" cy="76.137" r="17.008"/>
<circle fill="#BCCFC3" cx="20.919" cy="126.567" r="11.339"/>
<g>
	<path fill="#9AB7D2" d="M66.9,212.97v12.95c0,3.521-2.861,6.38-6.381,6.38s-6.379-2.859-6.379-6.38v-12.95
		c0-3.529,2.859-6.38,6.379-6.38S66.9,209.44,66.9,212.97z"/>
</g>
<g>
	<path fill="#BCCFC3" d="M30.9,212.97v12.95c0,3.521-2.86,6.38-6.38,6.38c-3.521,0-6.38-2.859-6.38-6.38v-12.95
		c0-3.529,2.859-6.38,6.38-6.38C28.04,206.59,30.9,209.44,30.9,212.97z"/>
</g>
<circle fill="#9AB7D2" cx="63.987" cy="126.567" r="11.339"/>
<g>
	<path fill="#231F20" d="M21.045,159.874v-6.058h0.784v6.058H21.045z M21.682,158.829l0.016-1.004l2.49-2.278h0.947l-1.91,1.878
		l-0.425,0.359L21.682,158.829z M24.351,159.874l-1.698-2.106l0.506-0.628l2.155,2.735H24.351z"/>
	<path fill="#231F20" d="M29.38,159.923c-0.436,0-0.822-0.095-1.159-0.286c-0.338-0.19-0.604-0.453-0.8-0.788
		c-0.196-0.335-0.294-0.714-0.294-1.139c0-0.43,0.098-0.811,0.294-1.143c0.196-0.332,0.462-0.592,0.8-0.779
		c0.337-0.188,0.724-0.282,1.159-0.282c0.43,0,0.815,0.094,1.155,0.282c0.34,0.188,0.607,0.446,0.8,0.775
		c0.193,0.33,0.29,0.712,0.29,1.147c0,0.43-0.097,0.811-0.29,1.143c-0.193,0.332-0.46,0.593-0.8,0.784
		C30.195,159.828,29.81,159.923,29.38,159.923z M29.38,159.237c0.277,0,0.526-0.063,0.747-0.188c0.22-0.125,0.393-0.303,0.518-0.535
		c0.125-0.231,0.188-0.499,0.188-0.804c0-0.31-0.063-0.578-0.188-0.804c-0.125-0.226-0.298-0.401-0.518-0.526
		c-0.221-0.125-0.47-0.188-0.747-0.188c-0.278,0-0.525,0.063-0.743,0.188s-0.392,0.301-0.522,0.526
		c-0.13,0.226-0.196,0.494-0.196,0.804c0,0.305,0.065,0.573,0.196,0.804c0.131,0.231,0.305,0.41,0.522,0.535
		C28.855,159.175,29.103,159.237,29.38,159.237z"/>
	<path fill="#231F20" d="M39.757,155.506c0.348,0,0.656,0.068,0.922,0.204s0.475,0.343,0.625,0.621
		c0.15,0.277,0.225,0.628,0.225,1.053v2.49h-0.784v-2.4c0-0.419-0.098-0.734-0.294-0.947s-0.471-0.318-0.825-0.318
		c-0.261,0-0.49,0.054-0.686,0.163s-0.347,0.27-0.453,0.482c-0.106,0.212-0.159,0.476-0.159,0.792v2.229h-0.784v-2.4
		c0-0.419-0.097-0.734-0.29-0.947s-0.469-0.318-0.829-0.318c-0.256,0-0.481,0.054-0.678,0.163c-0.196,0.109-0.348,0.27-0.457,0.482
		c-0.109,0.212-0.163,0.476-0.163,0.792v2.229h-0.784v-4.327h0.751v1.151l-0.123-0.294c0.136-0.283,0.346-0.503,0.628-0.661
		c0.283-0.158,0.612-0.237,0.988-0.237c0.414,0,0.771,0.102,1.07,0.306s0.495,0.513,0.588,0.927l-0.318-0.131
		c0.13-0.332,0.359-0.599,0.686-0.8C38.94,155.607,39.321,155.506,39.757,155.506z"/>
	<path fill="#231F20" d="M44.606,161.458v-5.911h0.751v1.167l-0.05,1.004l0.082,1.004v2.735H44.606z M46.9,159.923
		c-0.359,0-0.688-0.083-0.984-0.249c-0.297-0.166-0.533-0.412-0.71-0.739s-0.266-0.735-0.266-1.225s0.086-0.898,0.258-1.225
		c0.171-0.327,0.405-0.571,0.702-0.735c0.296-0.163,0.63-0.245,1-0.245c0.424,0,0.8,0.093,1.126,0.277
		c0.327,0.185,0.585,0.442,0.776,0.771c0.19,0.33,0.285,0.714,0.285,1.155s-0.095,0.828-0.285,1.159
		c-0.191,0.332-0.449,0.591-0.776,0.776C47.7,159.831,47.324,159.923,46.9,159.923z M46.834,159.237
		c0.277,0,0.526-0.063,0.747-0.188c0.22-0.125,0.395-0.303,0.522-0.535s0.191-0.499,0.191-0.804c0-0.31-0.063-0.578-0.191-0.804
		c-0.128-0.226-0.303-0.401-0.522-0.526c-0.221-0.125-0.47-0.188-0.747-0.188c-0.272,0-0.519,0.063-0.739,0.188
		s-0.395,0.301-0.522,0.526c-0.128,0.226-0.191,0.494-0.191,0.804c0,0.305,0.063,0.573,0.191,0.804s0.302,0.41,0.522,0.535
		C46.316,159.175,46.562,159.237,46.834,159.237z"/>
	<path fill="#231F20" d="M53.031,159.923c-0.321,0-0.603-0.054-0.845-0.163s-0.429-0.26-0.56-0.453
		c-0.13-0.193-0.195-0.412-0.195-0.657c0-0.234,0.056-0.446,0.167-0.637s0.294-0.343,0.547-0.457
		c0.253-0.115,0.595-0.172,1.024-0.172h1.372v0.563h-1.339c-0.392,0-0.656,0.065-0.792,0.196c-0.136,0.131-0.204,0.289-0.204,0.474
		c0,0.212,0.084,0.382,0.253,0.51s0.402,0.192,0.702,0.192c0.294,0,0.551-0.065,0.771-0.196c0.221-0.131,0.38-0.321,0.478-0.572
		l0.155,0.539c-0.104,0.256-0.286,0.458-0.547,0.608C53.757,159.848,53.428,159.923,53.031,159.923z M54.452,159.874v-0.915
		l-0.041-0.171v-1.559c0-0.332-0.097-0.589-0.29-0.771c-0.193-0.183-0.482-0.273-0.869-0.273c-0.256,0-0.506,0.042-0.751,0.126
		s-0.452,0.197-0.62,0.339l-0.327-0.588c0.224-0.18,0.491-0.317,0.805-0.413c0.313-0.095,0.641-0.143,0.983-0.143
		c0.593,0,1.051,0.144,1.371,0.433c0.321,0.289,0.482,0.729,0.482,1.323v2.612H54.452z"/>
	<path fill="#231F20" d="M58.281,159.874v-4.327h0.751v1.176l-0.074-0.294c0.12-0.299,0.321-0.528,0.604-0.686
		s0.631-0.237,1.045-0.237v0.759c-0.032-0.005-0.063-0.008-0.094-0.008s-0.059,0-0.086,0c-0.419,0-0.751,0.125-0.996,0.375
		c-0.245,0.25-0.367,0.612-0.367,1.086v2.155H58.281z"/>
	<path fill="#231F20" d="M63.594,154.714c-0.152,0-0.278-0.049-0.379-0.147s-0.151-0.218-0.151-0.359
		c0-0.147,0.051-0.269,0.151-0.367s0.227-0.147,0.379-0.147s0.279,0.048,0.381,0.143c0.1,0.095,0.15,0.213,0.15,0.355
		c0,0.147-0.049,0.271-0.146,0.372S63.752,154.714,63.594,154.714z M63.204,159.874v-4.327h0.783v4.327H63.204z"/>
</g>
<g>
	<path fill="#231F20" d="M20.531,106.923c-0.321,0-0.603-0.054-0.845-0.163c-0.243-0.109-0.429-0.26-0.56-0.453
		c-0.13-0.193-0.196-0.412-0.196-0.657c0-0.234,0.056-0.446,0.167-0.637c0.111-0.19,0.294-0.343,0.547-0.457
		c0.253-0.115,0.595-0.172,1.024-0.172h1.372v0.563h-1.339c-0.392,0-0.656,0.065-0.792,0.196c-0.136,0.131-0.204,0.289-0.204,0.474
		c0,0.212,0.084,0.382,0.253,0.51c0.168,0.128,0.402,0.192,0.702,0.192c0.294,0,0.551-0.065,0.771-0.196
		c0.22-0.131,0.379-0.321,0.478-0.572l0.155,0.539c-0.103,0.256-0.286,0.458-0.547,0.608
		C21.257,106.848,20.928,106.923,20.531,106.923z M21.951,106.874v-0.915l-0.041-0.171v-1.559c0-0.332-0.097-0.589-0.29-0.771
		c-0.193-0.183-0.483-0.273-0.869-0.273c-0.256,0-0.506,0.042-0.751,0.126c-0.245,0.084-0.452,0.197-0.62,0.339l-0.327-0.588
		c0.223-0.18,0.491-0.317,0.804-0.413c0.313-0.095,0.641-0.143,0.983-0.143c0.593,0,1.051,0.144,1.372,0.433
		c0.321,0.289,0.482,0.729,0.482,1.323v2.612H21.951z"/>
</g>
<g>
	<path fill="#231F20" d="M62.128,106.874v-6.058h0.784v2.882l-0.082,1.004l0.049,1.004v1.167H62.128z M64.422,106.923
		c-0.37,0-0.703-0.083-1-0.249c-0.297-0.166-0.53-0.412-0.702-0.739c-0.171-0.327-0.257-0.735-0.257-1.225s0.088-0.898,0.265-1.225
		c0.178-0.327,0.414-0.571,0.711-0.735c0.296-0.163,0.624-0.245,0.983-0.245c0.425,0,0.8,0.093,1.127,0.277
		c0.326,0.185,0.585,0.442,0.775,0.771c0.19,0.33,0.286,0.714,0.286,1.155s-0.096,0.828-0.286,1.159
		c-0.19,0.332-0.449,0.591-0.775,0.776C65.222,106.831,64.847,106.923,64.422,106.923z M64.357,106.237
		c0.278,0,0.526-0.063,0.747-0.188c0.221-0.125,0.395-0.303,0.522-0.535s0.192-0.499,0.192-0.804c0-0.31-0.064-0.578-0.192-0.804
		c-0.128-0.226-0.302-0.401-0.522-0.526s-0.469-0.188-0.747-0.188c-0.271,0-0.519,0.063-0.738,0.188
		c-0.221,0.125-0.395,0.301-0.522,0.526c-0.128,0.226-0.192,0.494-0.192,0.804c0,0.305,0.064,0.573,0.192,0.804
		s0.302,0.41,0.522,0.535C63.838,106.175,64.085,106.237,64.357,106.237z"/>
</g>
<g>
	<path fill="#231F20" d="M31.266,32.449c-0.321,0-0.603-0.054-0.845-0.163c-0.243-0.109-0.429-0.26-0.56-0.453
		c-0.13-0.193-0.196-0.412-0.196-0.657c0-0.234,0.056-0.446,0.167-0.637c0.111-0.19,0.294-0.343,0.547-0.457
		c0.253-0.115,0.595-0.172,1.024-0.172h1.372v0.563h-1.339c-0.392,0-0.656,0.065-0.792,0.196c-0.136,0.131-0.204,0.289-0.204,0.474
		c0,0.212,0.084,0.382,0.253,0.51c0.168,0.128,0.402,0.192,0.702,0.192c0.294,0,0.551-0.065,0.771-0.196
		c0.22-0.131,0.379-0.321,0.478-0.572l0.155,0.539c-0.103,0.256-0.286,0.458-0.547,0.608C31.993,32.374,31.664,32.449,31.266,32.449
		z M32.687,32.4v-0.915l-0.041-0.171v-1.559c0-0.332-0.097-0.589-0.29-0.771c-0.193-0.183-0.483-0.273-0.869-0.273
		c-0.256,0-0.506,0.042-0.751,0.126c-0.245,0.084-0.452,0.197-0.62,0.339l-0.327-0.588c0.223-0.18,0.491-0.317,0.804-0.413
		c0.313-0.095,0.641-0.143,0.983-0.143c0.593,0,1.051,0.144,1.372,0.433c0.321,0.289,0.482,0.729,0.482,1.323V32.4H32.687z"/>
	<path fill="#231F20" d="M36.516,32.4v-6.058h0.784V32.4H36.516z"/>
	<path fill="#231F20" d="M40.426,32.4v-6.058h0.784V32.4H40.426z"/>
	<path fill="#231F20" d="M46.263,32.449c-0.463,0-0.869-0.095-1.221-0.286c-0.351-0.19-0.623-0.452-0.816-0.784
		s-0.29-0.713-0.29-1.143c0-0.43,0.095-0.811,0.282-1.143c0.188-0.332,0.446-0.592,0.775-0.779c0.329-0.188,0.7-0.282,1.114-0.282
		c0.419,0,0.789,0.093,1.11,0.277c0.321,0.185,0.573,0.445,0.755,0.78c0.183,0.335,0.273,0.726,0.273,1.171
		c0,0.033-0.001,0.071-0.004,0.114c-0.003,0.044-0.007,0.084-0.012,0.123h-3.683v-0.563h3.274l-0.318,0.196
		c0.005-0.278-0.052-0.525-0.172-0.743c-0.12-0.217-0.284-0.388-0.494-0.51c-0.209-0.122-0.453-0.184-0.73-0.184
		c-0.272,0-0.515,0.062-0.727,0.184c-0.212,0.123-0.378,0.294-0.498,0.515c-0.12,0.22-0.18,0.472-0.18,0.755v0.131
		c0,0.289,0.066,0.545,0.2,0.771s0.319,0.401,0.56,0.526c0.239,0.125,0.514,0.188,0.824,0.188c0.256,0,0.488-0.043,0.698-0.131
		c0.209-0.087,0.393-0.217,0.551-0.392l0.433,0.506c-0.195,0.229-0.439,0.403-0.73,0.522C46.948,32.389,46.623,32.449,46.263,32.449
		z"/>
	<path fill="#231F20" d="M53.276,28.032c0.354,0,0.665,0.068,0.935,0.204s0.48,0.343,0.633,0.621
		c0.152,0.277,0.229,0.628,0.229,1.053v2.49h-0.784V30c0-0.419-0.102-0.734-0.306-0.947s-0.491-0.318-0.861-0.318
		c-0.277,0-0.52,0.054-0.727,0.163s-0.366,0.27-0.478,0.482c-0.111,0.212-0.167,0.476-0.167,0.792V32.4h-0.784v-4.327h0.751v1.167
		l-0.122-0.31c0.142-0.283,0.359-0.503,0.653-0.661C52.541,28.111,52.884,28.032,53.276,28.032z"/>
	<path fill="#231F20" d="M18.71,42.449c-0.359,0-0.701-0.049-1.024-0.147c-0.324-0.098-0.579-0.217-0.764-0.359l0.327-0.621
		c0.185,0.125,0.414,0.231,0.686,0.318c0.272,0.087,0.549,0.131,0.833,0.131c0.365,0,0.627-0.052,0.788-0.155
		c0.161-0.104,0.241-0.248,0.241-0.433c0-0.136-0.049-0.242-0.147-0.318c-0.098-0.076-0.228-0.133-0.388-0.171
		c-0.161-0.038-0.339-0.072-0.535-0.102c-0.196-0.03-0.392-0.068-0.587-0.115c-0.196-0.046-0.376-0.111-0.539-0.196
		c-0.163-0.084-0.294-0.201-0.392-0.351c-0.098-0.149-0.146-0.35-0.146-0.6c0-0.261,0.073-0.49,0.22-0.686s0.355-0.347,0.625-0.453
		s0.589-0.159,0.959-0.159c0.283,0,0.57,0.034,0.861,0.102c0.291,0.068,0.529,0.165,0.714,0.29l-0.335,0.621
		c-0.196-0.13-0.4-0.22-0.612-0.27c-0.212-0.049-0.424-0.073-0.637-0.073c-0.343,0-0.599,0.056-0.768,0.167
		c-0.168,0.111-0.253,0.254-0.253,0.428c0,0.147,0.05,0.26,0.151,0.339c0.101,0.079,0.231,0.14,0.392,0.184
		c0.16,0.043,0.339,0.08,0.535,0.11c0.196,0.03,0.392,0.068,0.588,0.114c0.196,0.046,0.374,0.11,0.535,0.192
		s0.291,0.196,0.392,0.343c0.101,0.147,0.151,0.343,0.151,0.588c0,0.261-0.076,0.487-0.229,0.678
		c-0.153,0.19-0.368,0.339-0.645,0.445C19.428,42.396,19.096,42.449,18.71,42.449z"/>
	<path fill="#231F20" d="M23.298,44.033c-0.207,0-0.408-0.034-0.604-0.102c-0.196-0.068-0.365-0.167-0.506-0.298l0.335-0.588
		c0.109,0.103,0.229,0.182,0.359,0.237c0.131,0.054,0.27,0.082,0.417,0.082c0.19,0,0.348-0.049,0.474-0.147
		c0.125-0.098,0.242-0.272,0.351-0.522l0.27-0.596L24.474,42l1.698-3.927h0.768l-2.098,4.76c-0.125,0.305-0.265,0.544-0.42,0.719
		c-0.155,0.174-0.325,0.298-0.51,0.371C23.725,43.996,23.521,44.033,23.298,44.033z M24.327,42.539l-1.976-4.466h0.816l1.682,3.854
		L24.327,42.539z"/>
	<path fill="#231F20" d="M31.617,38.032c0.354,0,0.666,0.068,0.935,0.204c0.269,0.136,0.48,0.343,0.632,0.621
		c0.152,0.277,0.229,0.628,0.229,1.053v2.49h-0.784V40c0-0.419-0.102-0.734-0.306-0.947c-0.204-0.212-0.492-0.318-0.861-0.318
		c-0.278,0-0.52,0.054-0.727,0.163c-0.207,0.109-0.366,0.27-0.478,0.482c-0.111,0.212-0.167,0.476-0.167,0.792V42.4h-0.784v-4.327
		h0.751v1.167l-0.123-0.31c0.142-0.283,0.359-0.503,0.653-0.661C30.882,38.111,31.226,38.032,31.617,38.032z"/>
	<path fill="#231F20" d="M35.879,38.718v-0.645h2.759v0.645H35.879z M37.985,42.449c-0.436,0-0.773-0.117-1.013-0.351
		c-0.239-0.234-0.359-0.568-0.359-1.004v-3.968h0.784v3.935c0,0.234,0.058,0.414,0.175,0.539c0.117,0.125,0.284,0.188,0.502,0.188
		c0.245,0,0.449-0.068,0.612-0.204l0.245,0.563c-0.12,0.104-0.263,0.18-0.429,0.229S38.165,42.449,37.985,42.449z"/>
	<path fill="#231F20" d="M43.822,38.032c0.354,0,0.666,0.068,0.936,0.204c0.269,0.136,0.479,0.343,0.632,0.621
		c0.152,0.277,0.229,0.628,0.229,1.053v2.49h-0.784V40c0-0.419-0.103-0.734-0.306-0.947c-0.204-0.212-0.492-0.318-0.861-0.318
		c-0.278,0-0.521,0.054-0.727,0.163s-0.366,0.27-0.478,0.482c-0.111,0.212-0.167,0.476-0.167,0.792V42.4h-0.784v-6.058h0.784v2.898
		l-0.155-0.31c0.142-0.283,0.359-0.503,0.653-0.661C43.087,38.111,43.43,38.032,43.822,38.032z"/>
	<path fill="#231F20" d="M50.63,42.449c-0.462,0-0.869-0.095-1.22-0.286c-0.352-0.19-0.624-0.452-0.816-0.784
		c-0.193-0.332-0.29-0.713-0.29-1.143c0-0.43,0.094-0.811,0.281-1.143c0.188-0.332,0.446-0.592,0.775-0.779
		c0.33-0.188,0.701-0.282,1.115-0.282c0.419,0,0.789,0.093,1.11,0.277c0.32,0.185,0.572,0.445,0.755,0.78
		c0.183,0.335,0.273,0.726,0.273,1.171c0,0.033-0.002,0.071-0.004,0.114c-0.003,0.044-0.007,0.084-0.013,0.123h-3.682v-0.563h3.273
		l-0.318,0.196c0.006-0.278-0.052-0.525-0.171-0.743c-0.12-0.217-0.285-0.388-0.494-0.51c-0.21-0.122-0.453-0.184-0.73-0.184
		c-0.272,0-0.515,0.062-0.727,0.184c-0.213,0.123-0.379,0.294-0.498,0.515c-0.12,0.22-0.18,0.472-0.18,0.755v0.131
		c0,0.289,0.066,0.545,0.2,0.771c0.133,0.226,0.319,0.401,0.559,0.526c0.239,0.125,0.515,0.188,0.825,0.188
		c0.255,0,0.488-0.043,0.697-0.131c0.21-0.087,0.394-0.217,0.552-0.392l0.433,0.506c-0.196,0.229-0.439,0.403-0.731,0.522
		C51.315,42.389,50.99,42.449,50.63,42.449z"/>
	<path fill="#231F20" d="M56.574,42.449c-0.359,0-0.7-0.049-1.024-0.147c-0.324-0.098-0.578-0.217-0.764-0.359l0.327-0.621
		c0.185,0.125,0.413,0.231,0.686,0.318s0.55,0.131,0.833,0.131c0.364,0,0.627-0.052,0.787-0.155
		c0.161-0.104,0.241-0.248,0.241-0.433c0-0.136-0.049-0.242-0.146-0.318c-0.099-0.076-0.228-0.133-0.388-0.171
		c-0.161-0.038-0.339-0.072-0.535-0.102c-0.196-0.03-0.392-0.068-0.588-0.115c-0.196-0.046-0.376-0.111-0.539-0.196
		c-0.163-0.084-0.294-0.201-0.392-0.351c-0.098-0.149-0.146-0.35-0.146-0.6c0-0.261,0.073-0.49,0.22-0.686
		c0.147-0.196,0.355-0.347,0.625-0.453s0.589-0.159,0.959-0.159c0.283,0,0.57,0.034,0.861,0.102s0.529,0.165,0.715,0.29
		l-0.335,0.621c-0.196-0.13-0.4-0.22-0.612-0.27c-0.213-0.049-0.425-0.073-0.637-0.073c-0.343,0-0.599,0.056-0.768,0.167
		c-0.169,0.111-0.253,0.254-0.253,0.428c0,0.147,0.05,0.26,0.15,0.339c0.101,0.079,0.231,0.14,0.393,0.184
		c0.16,0.043,0.339,0.08,0.534,0.11c0.196,0.03,0.392,0.068,0.588,0.114c0.196,0.046,0.374,0.11,0.535,0.192
		c0.16,0.082,0.291,0.196,0.392,0.343c0.101,0.147,0.151,0.343,0.151,0.588c0,0.261-0.076,0.487-0.229,0.678
		c-0.153,0.19-0.368,0.339-0.646,0.445C57.292,42.396,56.96,42.449,56.574,42.449z"/>
	<path fill="#231F20" d="M61.448,37.24c-0.152,0-0.278-0.049-0.379-0.147c-0.102-0.098-0.151-0.218-0.151-0.359
		c0-0.147,0.05-0.269,0.151-0.367c0.101-0.098,0.227-0.147,0.379-0.147s0.279,0.048,0.38,0.143s0.151,0.213,0.151,0.355
		c0,0.147-0.049,0.271-0.147,0.372C61.734,37.19,61.606,37.24,61.448,37.24z M61.056,42.4v-4.327h0.784V42.4H61.056z"/>
	<path fill="#231F20" d="M66.207,42.449c-0.358,0-0.7-0.049-1.024-0.147c-0.323-0.098-0.578-0.217-0.763-0.359l0.326-0.621
		c0.185,0.125,0.414,0.231,0.686,0.318c0.272,0.087,0.55,0.131,0.833,0.131c0.364,0,0.627-0.052,0.788-0.155
		c0.16-0.104,0.24-0.248,0.24-0.433c0-0.136-0.049-0.242-0.146-0.318s-0.228-0.133-0.388-0.171
		c-0.161-0.038-0.339-0.072-0.535-0.102c-0.195-0.03-0.392-0.068-0.588-0.115c-0.195-0.046-0.375-0.111-0.538-0.196
		c-0.164-0.084-0.294-0.201-0.393-0.351c-0.098-0.149-0.146-0.35-0.146-0.6c0-0.261,0.073-0.49,0.22-0.686
		c0.147-0.196,0.355-0.347,0.625-0.453s0.589-0.159,0.959-0.159c0.283,0,0.57,0.034,0.861,0.102s0.529,0.165,0.715,0.29
		l-0.335,0.621c-0.196-0.13-0.4-0.22-0.612-0.27c-0.212-0.049-0.425-0.073-0.637-0.073c-0.343,0-0.599,0.056-0.768,0.167
		c-0.169,0.111-0.253,0.254-0.253,0.428c0,0.147,0.05,0.26,0.151,0.339c0.101,0.079,0.23,0.14,0.392,0.184
		c0.16,0.043,0.339,0.08,0.534,0.11c0.196,0.03,0.393,0.068,0.588,0.114c0.196,0.046,0.374,0.11,0.535,0.192
		c0.16,0.082,0.291,0.196,0.392,0.343c0.101,0.147,0.151,0.343,0.151,0.588c0,0.261-0.076,0.487-0.229,0.678
		s-0.367,0.339-0.646,0.445C66.925,42.396,66.593,42.449,66.207,42.449z"/>
</g>
<g>
	<path fill="#231F20" d="M31.466,282.423c-0.321,0-0.603-0.054-0.845-0.163c-0.243-0.109-0.429-0.26-0.56-0.453
		c-0.13-0.193-0.196-0.412-0.196-0.657c0-0.233,0.056-0.446,0.167-0.637c0.111-0.19,0.294-0.343,0.547-0.457
		s0.595-0.172,1.024-0.172h1.372v0.563h-1.339c-0.392,0-0.656,0.065-0.792,0.195c-0.136,0.131-0.204,0.289-0.204,0.475
		c0,0.212,0.084,0.382,0.253,0.51c0.168,0.128,0.402,0.191,0.702,0.191c0.294,0,0.551-0.064,0.771-0.195
		c0.22-0.131,0.379-0.321,0.478-0.572l0.155,0.539c-0.103,0.256-0.286,0.459-0.547,0.609
		C32.193,282.348,31.864,282.423,31.466,282.423z M32.887,282.374v-0.915l-0.041-0.171v-1.56c0-0.332-0.097-0.589-0.29-0.771
		c-0.193-0.182-0.483-0.273-0.869-0.273c-0.256,0-0.506,0.043-0.751,0.127c-0.245,0.084-0.452,0.197-0.62,0.339l-0.327-0.588
		c0.223-0.18,0.491-0.317,0.804-0.413c0.313-0.094,0.641-0.143,0.983-0.143c0.593,0,1.051,0.145,1.372,0.434
		c0.321,0.288,0.482,0.729,0.482,1.322v2.612H32.887z"/>
	<path fill="#231F20" d="M40.349,281.313v-0.678l3.396-1.307v0.377l-3.396-1.307v-0.678l3.658,1.445v0.701L40.349,281.313z"/>
	<path fill="#231F20" d="M50.757,282.374v-6.058h0.784v2.882l-0.082,1.005l0.049,1.004v1.167H50.757z M53.051,282.423
		c-0.37,0-0.703-0.083-1-0.249s-0.53-0.412-0.702-0.738c-0.171-0.327-0.257-0.735-0.257-1.225c0-0.49,0.088-0.898,0.265-1.225
		c0.178-0.327,0.414-0.572,0.711-0.735c0.296-0.163,0.624-0.245,0.983-0.245c0.425,0,0.8,0.094,1.127,0.277
		c0.326,0.186,0.585,0.443,0.775,0.771c0.19,0.33,0.286,0.715,0.286,1.156c0,0.44-0.096,0.827-0.286,1.158
		c-0.19,0.332-0.449,0.592-0.775,0.776C53.851,282.33,53.476,282.423,53.051,282.423z M52.986,281.737
		c0.278,0,0.526-0.063,0.747-0.188c0.221-0.125,0.395-0.303,0.522-0.534s0.192-0.499,0.192-0.804c0-0.311-0.064-0.578-0.192-0.805
		c-0.128-0.226-0.302-0.401-0.522-0.526s-0.469-0.188-0.747-0.188c-0.271,0-0.519,0.063-0.738,0.188
		c-0.221,0.125-0.395,0.301-0.522,0.526c-0.128,0.227-0.192,0.494-0.192,0.805c0,0.305,0.064,0.572,0.192,0.804
		s0.302,0.409,0.522,0.534C52.467,281.675,52.714,281.737,52.986,281.737z"/>
	<path fill="#231F20" d="M42.042,293.57c0-0.213,0.035-0.398,0.106-0.556s0.16-0.3,0.266-0.425s0.222-0.24,0.347-0.347
		c0.125-0.106,0.242-0.212,0.351-0.318c0.108-0.106,0.197-0.22,0.266-0.339c0.067-0.119,0.102-0.258,0.102-0.416
		c0-0.262-0.104-0.474-0.311-0.637c-0.206-0.164-0.492-0.245-0.856-0.245c-0.327,0-0.61,0.054-0.849,0.163
		c-0.24,0.109-0.444,0.27-0.612,0.481l-0.596-0.425c0.229-0.288,0.52-0.513,0.874-0.673c0.354-0.161,0.767-0.241,1.241-0.241
		c0.392,0,0.732,0.059,1.02,0.176c0.289,0.117,0.513,0.283,0.674,0.498c0.16,0.215,0.241,0.475,0.241,0.779
		c0,0.229-0.036,0.425-0.106,0.588c-0.071,0.164-0.161,0.308-0.27,0.433c-0.109,0.126-0.225,0.243-0.347,0.351
		c-0.123,0.109-0.238,0.219-0.348,0.327c-0.108,0.108-0.198,0.229-0.269,0.359c-0.071,0.13-0.106,0.286-0.106,0.466H42.042z
		 M42.459,295.423c-0.152,0-0.279-0.052-0.38-0.155s-0.151-0.226-0.151-0.367c0-0.152,0.05-0.277,0.151-0.375
		c0.101-0.099,0.228-0.147,0.38-0.147s0.277,0.049,0.375,0.147c0.098,0.098,0.147,0.223,0.147,0.375
		c0,0.142-0.049,0.264-0.147,0.367S42.611,295.423,42.459,295.423z"/>
</g>
<g>
	<path fill="none" stroke="#231F20" stroke-width="0.8" stroke-miterlimit="10" d="M21.028,169.573h5.674
		c0.78,0,1.417-0.638,1.417-1.417v-0.765c0-0.78,0.638-1.417,1.417-1.417h0.765c0.78,0,1.417,0.638,1.417,1.417v0.765
		c0,0.78,0.638,1.417,1.417,1.417h0.765c0.78,0,1.417-0.638,1.417-1.417v-0.765c0-0.78,0.638-1.417,1.417-1.417h0.765
		c0.78,0,1.417,0.638,1.417,1.417v0.765c0,0.78,0.638,1.417,1.417,1.417h0.765c0.78,0,1.417-0.638,1.417-1.417v-0.765
		c0-0.78,0.637-1.417,1.417-1.417h0.766c0.779,0,1.417,0.638,1.417,1.417v4.365c0,0.78,0.638,1.417,1.417,1.417h0.768
		c0.779,0,1.417-0.638,1.417-1.417v-4.365c0-0.78,0.638-1.417,1.417-1.417h0.766c0.779,0,1.417,0.638,1.417,1.417v4.365
		c0,0.78,0.638,1.417,1.417,1.417h0.766c0.779,0,1.417-0.638,1.417-1.417v-0.765c0-0.78,0.638-1.417,1.417-1.417h5.649"/>
</g>
<circle fill="#EC1C24" cx="20.58" cy="8.504" r="4.535"/>
<circle fill="#EC1C24" cx="20.58" cy="355.748" r="4.535"/>
<circle fill="#EC1C24" cx="42.52" cy="198.567" r="7.2"/>
<circle fill="#EC1C24" cx="64.119" cy="126.567" r="8.641"/>
<circle fill="#EC1C24" cx="20.92" cy="126.567" r="8.646"/>
<circle fill="#EC1C24" cx="20.92" cy="76.167" r="8.646"/>
<circle fill="#EC1C24" cx="64.12" cy="76.167" r="8.646"/>
<circle fill="#EC1C24" cx="42.52" cy="220.167" r="4.394"/>
<circle fill="#EC1C24" cx="24.521" cy="212.967" r="4.394"/>
<circle fill="#EC1C24" cx="60.52" cy="212.967" r="4.394"/>
<circle fill="#EC1C24" cx="42.52" cy="256.166" r="8.646"/>
<circle fill="#EC1C24" cx="42.52" cy="320.967" r="8.646"/>
</svg>
