<?xml version="1.0" encoding="utf-8"?>
<!-- Generator: Adobe Illustrator 16.0.0, SVG Export Plug-In . SVG Version: 6.00 Build 0)  -->
<!DOCTYPE svg PUBLIC "-//W3C//DTD SVG 1.1//EN" "http://www.w3.org/Graphics/SVG/1.1/DTD/svg11.dtd">
<svg version="1.1" id="Layer_1" xmlns="http://www.w3.org/2000/svg" xmlns:xlink="http://www.w3.org/1999/xlink" x="0px" y="0px"
	 width="85.039px" height="364.25px" viewBox="0 0 85.039 364.25" enable-background="new 0 0 85.039 364.25" xml:space="preserve">
<path fill="#F1F2F2" d="M0,0v364.25h85.04V0H0z M23.897,360.25h-5.299c-2.5,0-4.5-1.999-4.5-4.499l0,0l0,0
	c0-2.499,2-4.499,4.5-4.499l0,0h5.299c2.5,0,4.499,2,4.499,4.499l0,0l0,0C28.496,358.251,26.396,360.25,23.897,360.25L23.897,360.25
	z M23.897,12.998h-5.299c-2.5,0-4.5-2-4.5-4.499l0,0c0-2.5,2-4.5,4.5-4.5h5.299c2.5,0,4.499,2,4.499,4.5l0,0
	C28.396,10.999,26.396,12.998,23.897,12.998z"/>
<title>Asset 6</title>
<circle fill="#BCCFC3" cx="21.606" cy="76.137" r="17.008"/>
<circle fill="#9AB7D2" cx="64.85" cy="76.137" r="17.008"/>
<circle fill="#BCCFC3" cx="21.599" cy="126.567" r="11.339"/>
<g>
	<path fill="#9AB7D2" d="M67.58,212.971v12.949c0,3.521-2.859,6.38-6.38,6.38s-6.38-2.858-6.38-6.38v-12.949
		c0-3.529,2.859-6.381,6.38-6.381S67.58,209.439,67.58,212.971z"/>
</g>
<g>
	<path fill="#BCCFC3" d="M31.581,212.971v12.949c0,3.521-2.86,6.38-6.38,6.38c-3.521,0-6.38-2.858-6.38-6.38v-12.949
		c0-3.529,2.859-6.381,6.38-6.381C28.72,206.59,31.581,209.439,31.581,212.971z"/>
</g>
<circle fill="#9AB7D2" cx="64.667" cy="126.567" r="11.339"/>
<g>
	<g>
		<g>
			<circle fill="#323031" cx="43.2" cy="256.167" r="8.504"/>
		</g>
	</g>
	
		<line fill="none" stroke="#FFFFFF" stroke-width="1.5" stroke-miterlimit="10" x1="43.199" y1="256.167" x2="43.199" y2="247.664"/>
</g>
<g>
	<g>
		<g>
			<circle fill="#323031" cx="21.599" cy="126.567" r="8.504"/>
		</g>
	</g>
	
		<line fill="none" stroke="#FFFFFF" stroke-width="1.5" stroke-miterlimit="10" x1="21.599" y1="126.567" x2="21.599" y2="118.064"/>
</g>
<g>
	<g>
		<g>
			<circle fill="#323031" cx="64.85" cy="126.567" r="8.504"/>
		</g>
	</g>
	<line fill="none" stroke="#FFFFFF" stroke-width="1.5" stroke-miterlimit="10" x1="64.85" y1="126.567" x2="64.85" y2="118.064"/>
</g>
<circle fill="#BD202E" cx="25.201" cy="212.965" r="4.299"/>
<circle fill="#BD202E" cx="43.2" cy="220.167" r="4.299"/>
<circle fill="#BD202E" cx="61.201" cy="212.965" r="4.299"/>
<g>
	<path fill="#231F20" d="M31.947,32.449c-0.321,0-0.603-0.054-0.845-0.163c-0.243-0.109-0.429-0.26-0.56-0.453
		c-0.13-0.193-0.196-0.412-0.196-0.657c0-0.234,0.056-0.446,0.167-0.637c0.111-0.19,0.294-0.343,0.547-0.457
		c0.253-0.115,0.595-0.172,1.024-0.172h1.372v0.563h-1.339c-0.392,0-0.656,0.065-0.792,0.196c-0.136,0.131-0.204,0.289-0.204,0.474
		c0,0.212,0.084,0.382,0.253,0.51c0.168,0.128,0.402,0.192,0.702,0.192c0.294,0,0.551-0.065,0.771-0.196
		c0.22-0.131,0.379-0.321,0.478-0.572l0.155,0.539c-0.103,0.256-0.286,0.458-0.547,0.608C32.673,32.374,32.344,32.449,31.947,32.449
		z M33.367,32.4v-0.915l-0.041-0.171v-1.559c0-0.332-0.097-0.589-0.29-0.771c-0.193-0.183-0.483-0.273-0.869-0.273
		c-0.256,0-0.506,0.042-0.751,0.126s-0.452,0.197-0.62,0.339l-0.327-0.588c0.223-0.18,0.491-0.317,0.804-0.413
		c0.313-0.095,0.641-0.143,0.983-0.143c0.593,0,1.051,0.144,1.372,0.433c0.321,0.289,0.482,0.729,0.482,1.323V32.4H33.367z"/>
	<path fill="#231F20" d="M37.196,32.4v-6.058h0.784V32.4H37.196z"/>
	<path fill="#231F20" d="M41.107,32.4v-6.058h0.784V32.4H41.107z"/>
	<path fill="#231F20" d="M46.943,32.449c-0.461,0-0.868-0.095-1.219-0.286c-0.353-0.191-0.625-0.452-0.816-0.784
		c-0.193-0.332-0.29-0.713-0.29-1.143c0-0.43,0.094-0.811,0.282-1.143c0.188-0.332,0.445-0.592,0.773-0.779
		c0.33-0.188,0.701-0.282,1.115-0.282c0.419,0,0.789,0.093,1.109,0.277c0.32,0.185,0.572,0.445,0.754,0.78
		c0.185,0.335,0.273,0.726,0.273,1.171c0,0.033,0,0.071-0.004,0.114c-0.003,0.044-0.007,0.084-0.012,0.123h-3.68v-0.563h3.272
		l-0.317,0.196c0.006-0.278-0.053-0.525-0.17-0.743c-0.121-0.217-0.285-0.388-0.494-0.51s-0.453-0.184-0.73-0.184
		c-0.271,0-0.516,0.062-0.727,0.184c-0.213,0.123-0.379,0.294-0.498,0.515c-0.121,0.22-0.18,0.472-0.18,0.755v0.131
		c0,0.289,0.064,0.545,0.198,0.771c0.133,0.226,0.317,0.401,0.56,0.526c0.238,0.125,0.515,0.188,0.826,0.188
		c0.254,0,0.486-0.043,0.696-0.131c0.209-0.087,0.394-0.217,0.551-0.392l0.435,0.506c-0.196,0.229-0.439,0.403-0.731,0.522
		C47.628,32.389,47.303,32.449,46.943,32.449z"/>
	<path fill="#231F20" d="M53.956,28.032c0.354,0,0.666,0.068,0.935,0.204c0.271,0.136,0.48,0.343,0.633,0.621
		c0.151,0.277,0.229,0.628,0.229,1.053v2.49h-0.784V30c0-0.419-0.102-0.734-0.306-0.947c-0.204-0.212-0.492-0.318-0.86-0.318
		c-0.277,0-0.521,0.054-0.728,0.163s-0.366,0.27-0.479,0.482c-0.111,0.212-0.166,0.476-0.166,0.792V32.4h-0.785v-4.327h0.752v1.167
		l-0.123-0.31c0.143-0.283,0.358-0.503,0.652-0.661C53.221,28.111,53.564,28.032,53.956,28.032z"/>
	<path fill="#231F20" d="M19.39,42.449c-0.359,0-0.701-0.049-1.024-0.147c-0.324-0.098-0.579-0.217-0.764-0.359l0.327-0.621
		c0.185,0.125,0.414,0.229,0.686,0.318c0.272,0.087,0.549,0.131,0.833,0.131c0.365,0,0.627-0.052,0.788-0.155
		c0.161-0.104,0.241-0.248,0.241-0.433c0-0.136-0.049-0.242-0.147-0.318c-0.098-0.076-0.228-0.133-0.388-0.171
		c-0.161-0.038-0.339-0.072-0.535-0.102c-0.196-0.03-0.392-0.068-0.587-0.115c-0.196-0.046-0.376-0.111-0.539-0.196
		c-0.163-0.084-0.294-0.201-0.392-0.351c-0.098-0.149-0.146-0.35-0.146-0.6c0-0.261,0.073-0.49,0.22-0.686s0.355-0.347,0.625-0.453
		s0.589-0.159,0.959-0.159c0.283,0,0.57,0.034,0.861,0.102c0.291,0.068,0.529,0.165,0.714,0.29l-0.335,0.621
		c-0.196-0.13-0.4-0.22-0.612-0.27c-0.212-0.049-0.424-0.073-0.637-0.073c-0.343,0-0.599,0.056-0.768,0.167
		c-0.168,0.111-0.253,0.254-0.253,0.428c0,0.147,0.05,0.26,0.151,0.339c0.101,0.079,0.231,0.14,0.392,0.184
		c0.16,0.043,0.339,0.08,0.535,0.11c0.196,0.03,0.392,0.068,0.588,0.114c0.196,0.046,0.374,0.11,0.535,0.192
		c0.161,0.082,0.291,0.196,0.392,0.343s0.151,0.343,0.151,0.588c0,0.261-0.076,0.487-0.229,0.678
		c-0.153,0.19-0.368,0.339-0.645,0.445C20.109,42.396,19.777,42.449,19.39,42.449z"/>
	<path fill="#231F20" d="M23.978,44.033c-0.207,0-0.408-0.034-0.604-0.102c-0.196-0.068-0.365-0.167-0.506-0.298l0.335-0.588
		c0.109,0.103,0.229,0.182,0.359,0.237c0.131,0.054,0.27,0.082,0.417,0.082c0.19,0,0.348-0.049,0.474-0.147
		c0.125-0.098,0.242-0.272,0.351-0.522l0.27-0.596L25.154,42l1.698-3.927h0.768l-2.098,4.76c-0.125,0.305-0.265,0.544-0.42,0.719
		c-0.155,0.174-0.325,0.298-0.51,0.371C24.406,43.996,24.201,44.033,23.978,44.033z M25.007,42.539l-1.976-4.466h0.816l1.682,3.854
		L25.007,42.539z"/>
	<path fill="#231F20" d="M32.298,38.032c0.354,0,0.666,0.068,0.935,0.204c0.269,0.136,0.48,0.343,0.632,0.621
		c0.152,0.277,0.229,0.628,0.229,1.053v2.49H33.31V40c0-0.419-0.102-0.734-0.306-0.947c-0.204-0.212-0.492-0.318-0.861-0.318
		c-0.278,0-0.52,0.054-0.727,0.163s-0.366,0.27-0.478,0.482c-0.111,0.212-0.167,0.476-0.167,0.792V42.4h-0.784v-4.327h0.751v1.167
		l-0.123-0.31c0.142-0.283,0.359-0.503,0.653-0.661C31.563,38.111,31.906,38.032,32.298,38.032z"/>
	<path fill="#231F20" d="M36.559,38.718v-0.645h2.759v0.645H36.559z M38.666,42.449c-0.436,0-0.773-0.117-1.013-0.351
		c-0.239-0.234-0.359-0.568-0.359-1.004v-3.968h0.784v3.935c0,0.234,0.058,0.414,0.175,0.539c0.117,0.125,0.284,0.188,0.502,0.188
		c0.245,0,0.449-0.068,0.612-0.204l0.245,0.563c-0.12,0.104-0.263,0.18-0.429,0.229S38.845,42.449,38.666,42.449z"/>
	<path fill="#231F20" d="M44.503,38.032c0.354,0,0.666,0.068,0.935,0.204c0.271,0.136,0.48,0.343,0.633,0.621
		c0.152,0.277,0.229,0.628,0.229,1.053v2.49h-0.782V40c0-0.419-0.104-0.734-0.308-0.947c-0.204-0.212-0.492-0.318-0.86-0.318
		c-0.277,0-0.521,0.054-0.728,0.163s-0.366,0.27-0.479,0.482c-0.109,0.212-0.167,0.476-0.167,0.792V42.4h-0.784v-6.058h0.784v2.898
		l-0.155-0.31c0.142-0.283,0.359-0.503,0.654-0.661C43.768,38.111,44.111,38.032,44.503,38.032z"/>
	<path fill="#231F20" d="M51.311,42.449c-0.461,0-0.869-0.095-1.22-0.286s-0.624-0.452-0.815-0.784
		c-0.192-0.332-0.291-0.713-0.291-1.143c0-0.43,0.096-0.811,0.283-1.143c0.188-0.332,0.445-0.592,0.774-0.779
		c0.33-0.188,0.701-0.282,1.115-0.282c0.419,0,0.788,0.093,1.11,0.277c0.319,0.185,0.571,0.445,0.754,0.78
		c0.184,0.335,0.272,0.726,0.272,1.171c0,0.033-0.001,0.071-0.004,0.114c-0.003,0.044-0.007,0.084-0.013,0.123h-3.682v-0.563h3.273
		l-0.318,0.196c0.006-0.278-0.052-0.525-0.171-0.743c-0.12-0.217-0.284-0.388-0.493-0.51s-0.453-0.184-0.729-0.184
		c-0.271,0-0.517,0.062-0.728,0.184c-0.213,0.123-0.379,0.294-0.498,0.515c-0.121,0.22-0.181,0.472-0.181,0.755v0.131
		c0,0.289,0.065,0.545,0.2,0.771c0.133,0.226,0.318,0.401,0.559,0.526c0.239,0.125,0.514,0.188,0.825,0.188
		c0.255,0,0.487-0.043,0.698-0.131c0.209-0.087,0.393-0.217,0.551-0.392l0.434,0.506c-0.197,0.229-0.438,0.403-0.73,0.522
		C51.996,42.389,51.671,42.449,51.311,42.449z"/>
	<path fill="#231F20" d="M57.255,42.449c-0.358,0-0.7-0.049-1.024-0.147c-0.322-0.098-0.578-0.217-0.764-0.359l0.327-0.621
		c0.185,0.125,0.414,0.229,0.687,0.318c0.271,0.087,0.549,0.131,0.832,0.131c0.365,0,0.629-0.052,0.789-0.155
		c0.16-0.103,0.239-0.248,0.239-0.433c0-0.136-0.049-0.242-0.146-0.318c-0.098-0.076-0.229-0.133-0.389-0.171
		c-0.16-0.038-0.34-0.072-0.535-0.102c-0.195-0.03-0.393-0.068-0.586-0.115c-0.197-0.046-0.377-0.111-0.539-0.196
		c-0.164-0.084-0.295-0.201-0.394-0.351c-0.099-0.149-0.146-0.35-0.146-0.6c0-0.261,0.074-0.49,0.221-0.686s0.355-0.347,0.625-0.453
		s0.589-0.159,0.959-0.159c0.283,0,0.57,0.034,0.861,0.102c0.291,0.068,0.529,0.165,0.715,0.29l-0.336,0.621
		c-0.194-0.13-0.399-0.22-0.611-0.27c-0.212-0.049-0.425-0.073-0.637-0.073c-0.344,0-0.6,0.056-0.768,0.167
		c-0.17,0.111-0.255,0.254-0.255,0.428c0,0.147,0.052,0.26,0.151,0.339c0.101,0.079,0.23,0.14,0.392,0.184
		c0.16,0.043,0.341,0.08,0.535,0.11c0.196,0.03,0.392,0.068,0.588,0.114c0.195,0.046,0.373,0.11,0.534,0.192
		s0.291,0.196,0.393,0.343c0.103,0.147,0.15,0.343,0.15,0.588c0,0.261-0.076,0.487-0.229,0.678c-0.152,0.19-0.367,0.339-0.646,0.445
		S57.641,42.449,57.255,42.449z"/>
	<path fill="#231F20" d="M62.129,37.24c-0.152,0-0.279-0.049-0.38-0.147c-0.101-0.098-0.151-0.218-0.151-0.359
		c0-0.147,0.051-0.269,0.151-0.367c0.101-0.098,0.228-0.147,0.38-0.147s0.278,0.048,0.379,0.143
		c0.102,0.095,0.151,0.213,0.151,0.355c0,0.147-0.05,0.271-0.147,0.372C62.414,37.19,62.286,37.24,62.129,37.24z M61.736,42.4
		v-4.327h0.785V42.4H61.736z"/>
	<path fill="#231F20" d="M66.887,42.449c-0.357,0-0.699-0.049-1.023-0.147c-0.322-0.098-0.576-0.217-0.764-0.359l0.326-0.621
		c0.186,0.125,0.414,0.229,0.686,0.318c0.273,0.087,0.553,0.131,0.834,0.131c0.363,0,0.627-0.052,0.787-0.155
		c0.16-0.103,0.24-0.248,0.24-0.433c0-0.136-0.049-0.242-0.146-0.318c-0.097-0.076-0.228-0.133-0.388-0.171
		c-0.162-0.038-0.34-0.072-0.535-0.102c-0.194-0.03-0.393-0.068-0.588-0.115c-0.194-0.046-0.375-0.111-0.539-0.196
		c-0.164-0.084-0.293-0.201-0.394-0.351c-0.098-0.149-0.146-0.35-0.146-0.6c0-0.261,0.074-0.49,0.222-0.686s0.354-0.347,0.625-0.453
		s0.588-0.159,0.959-0.159c0.283,0,0.569,0.034,0.86,0.102c0.291,0.068,0.529,0.165,0.716,0.29l-0.336,0.621
		c-0.195-0.13-0.4-0.22-0.611-0.27c-0.213-0.049-0.426-0.073-0.637-0.073c-0.345,0-0.601,0.056-0.769,0.167
		c-0.17,0.111-0.254,0.254-0.254,0.428c0,0.147,0.051,0.26,0.151,0.339c0.101,0.079,0.229,0.14,0.392,0.184
		c0.159,0.043,0.34,0.08,0.534,0.11c0.195,0.03,0.394,0.068,0.589,0.114c0.194,0.046,0.373,0.11,0.534,0.192
		c0.16,0.082,0.291,0.196,0.392,0.343c0.103,0.147,0.151,0.343,0.151,0.588c0,0.261-0.075,0.487-0.229,0.678
		c-0.152,0.191-0.366,0.339-0.646,0.445C67.605,42.396,67.273,42.449,66.887,42.449z"/>
</g>
<g>
	<path fill="#231F20" d="M21.725,159.874v-6.058h0.784v6.058H21.725z M22.362,158.829l0.016-1.004l2.49-2.278h0.947l-1.91,1.878
		l-0.425,0.359L22.362,158.829z M25.031,159.874l-1.698-2.106l0.506-0.628l2.155,2.735L25.031,159.874L25.031,159.874z"/>
	<path fill="#231F20" d="M30.061,159.923c-0.436,0-0.822-0.095-1.159-0.286c-0.338-0.19-0.604-0.453-0.8-0.788
		c-0.196-0.335-0.294-0.714-0.294-1.139c0-0.43,0.098-0.811,0.294-1.143c0.196-0.332,0.462-0.592,0.8-0.779
		c0.337-0.188,0.724-0.282,1.159-0.282c0.43,0,0.815,0.094,1.155,0.282c0.34,0.188,0.607,0.446,0.8,0.775
		c0.193,0.33,0.29,0.712,0.29,1.147c0,0.43-0.097,0.811-0.29,1.143c-0.193,0.332-0.46,0.593-0.8,0.784
		C30.876,159.828,30.49,159.923,30.061,159.923z M30.061,159.237c0.277,0,0.526-0.063,0.747-0.188
		c0.22-0.125,0.393-0.303,0.518-0.535c0.125-0.231,0.188-0.499,0.188-0.804c0-0.31-0.063-0.578-0.188-0.804
		c-0.125-0.226-0.298-0.401-0.518-0.526c-0.221-0.125-0.47-0.188-0.747-0.188c-0.278,0-0.525,0.063-0.743,0.188
		c-0.218,0.125-0.392,0.301-0.522,0.526c-0.13,0.226-0.196,0.494-0.196,0.804c0,0.305,0.065,0.573,0.196,0.804
		c0.131,0.231,0.305,0.41,0.522,0.535C29.535,159.175,29.783,159.237,30.061,159.237z"/>
	<path fill="#231F20" d="M40.437,155.506c0.348,0,0.656,0.068,0.922,0.204c0.266,0.136,0.475,0.343,0.625,0.621
		c0.15,0.277,0.225,0.628,0.225,1.053v2.49h-0.784v-2.4c0-0.419-0.098-0.734-0.294-0.947c-0.196-0.213-0.471-0.318-0.825-0.318
		c-0.261,0-0.49,0.054-0.686,0.163c-0.196,0.109-0.347,0.27-0.453,0.482s-0.159,0.476-0.159,0.792v2.229h-0.784v-2.4
		c0-0.419-0.097-0.734-0.29-0.947c-0.193-0.213-0.469-0.318-0.829-0.318c-0.256,0-0.481,0.054-0.678,0.163
		c-0.196,0.109-0.348,0.27-0.457,0.482c-0.109,0.212-0.163,0.476-0.163,0.792v2.229h-0.784v-4.327h0.751v1.151l-0.123-0.294
		c0.136-0.283,0.346-0.503,0.628-0.661c0.283-0.158,0.612-0.237,0.988-0.237c0.414,0,0.771,0.102,1.07,0.306
		c0.299,0.204,0.495,0.513,0.588,0.927l-0.318-0.131c0.13-0.332,0.359-0.599,0.686-0.8
		C39.621,155.607,40.002,155.506,40.437,155.506z"/>
	<path fill="#231F20" d="M45.286,161.458v-5.911h0.751v1.167l-0.049,1.004l0.082,1.004v2.735L45.286,161.458L45.286,161.458z
		 M47.58,159.923c-0.359,0-0.688-0.083-0.984-0.249c-0.296-0.166-0.533-0.412-0.709-0.739c-0.178-0.327-0.266-0.735-0.266-1.225
		c0-0.49,0.086-0.898,0.257-1.225c0.171-0.327,0.405-0.571,0.702-0.735c0.296-0.163,0.63-0.245,1-0.245
		c0.424,0,0.8,0.093,1.126,0.277c0.327,0.185,0.585,0.442,0.776,0.771c0.188,0.33,0.285,0.714,0.285,1.155s-0.096,0.828-0.285,1.159
		c-0.191,0.332-0.449,0.591-0.776,0.776S48.005,159.923,47.58,159.923z M47.516,159.237c0.277,0,0.525-0.063,0.746-0.188
		s0.396-0.303,0.522-0.535s0.192-0.499,0.192-0.804c0-0.31-0.064-0.578-0.192-0.804c-0.128-0.226-0.302-0.401-0.522-0.526
		c-0.22-0.125-0.469-0.188-0.746-0.188c-0.271,0-0.52,0.063-0.74,0.188c-0.219,0.125-0.395,0.301-0.521,0.526
		c-0.128,0.226-0.19,0.494-0.19,0.804c0,0.305,0.063,0.573,0.19,0.804s0.304,0.41,0.521,0.535
		C46.996,159.175,47.243,159.237,47.516,159.237z"/>
	<path fill="#231F20" d="M53.712,159.923c-0.321,0-0.603-0.054-0.845-0.163c-0.243-0.109-0.43-0.26-0.561-0.453
		c-0.129-0.193-0.195-0.412-0.195-0.657c0-0.234,0.056-0.446,0.166-0.637c0.111-0.19,0.295-0.343,0.548-0.457
		c0.253-0.115,0.595-0.172,1.024-0.172h1.371v0.563h-1.34c-0.393,0-0.654,0.065-0.792,0.196c-0.136,0.131-0.202,0.289-0.202,0.474
		c0,0.212,0.084,0.382,0.252,0.51s0.401,0.192,0.701,0.192c0.294,0,0.553-0.065,0.771-0.196c0.221-0.131,0.38-0.321,0.479-0.572
		l0.155,0.539c-0.103,0.256-0.286,0.458-0.548,0.608C54.438,159.848,54.109,159.923,53.712,159.923z M55.132,159.874v-0.915
		l-0.041-0.171v-1.559c0-0.332-0.097-0.589-0.29-0.771c-0.193-0.183-0.482-0.273-0.869-0.273c-0.256,0-0.506,0.042-0.75,0.126
		c-0.246,0.084-0.453,0.197-0.621,0.339l-0.326-0.588c0.224-0.18,0.49-0.317,0.805-0.413c0.313-0.095,0.643-0.143,0.982-0.143
		c0.592,0,1.051,0.144,1.371,0.433c0.321,0.289,0.482,0.729,0.482,1.323v2.612H55.132L55.132,159.874z"/>
	<path fill="#231F20" d="M58.961,159.874v-4.327h0.751v1.176l-0.073-0.294c0.119-0.299,0.32-0.528,0.604-0.686
		c0.284-0.158,0.631-0.237,1.045-0.237v0.759c-0.032-0.005-0.063-0.008-0.095-0.008c-0.028,0-0.06,0-0.086,0
		c-0.418,0-0.75,0.125-0.996,0.375c-0.243,0.25-0.366,0.612-0.366,1.086v2.155L58.961,159.874L58.961,159.874z"/>
	<path fill="#231F20" d="M64.275,154.714c-0.151,0-0.278-0.049-0.379-0.147c-0.103-0.098-0.151-0.218-0.151-0.359
		c0-0.147,0.051-0.269,0.151-0.367c0.101-0.098,0.228-0.147,0.379-0.147c0.152,0,0.279,0.048,0.382,0.143
		c0.1,0.095,0.149,0.213,0.149,0.355c0,0.147-0.05,0.271-0.146,0.372C64.563,154.665,64.434,154.714,64.275,154.714z
		 M63.884,159.874v-4.327h0.784v4.327H63.884z"/>
</g>
<g>
	<path fill="#231F20" d="M21.211,106.923c-0.321,0-0.603-0.054-0.845-0.163c-0.243-0.109-0.429-0.26-0.56-0.453
		c-0.13-0.193-0.196-0.412-0.196-0.657c0-0.234,0.056-0.446,0.167-0.637c0.111-0.19,0.294-0.343,0.547-0.457
		c0.253-0.115,0.595-0.172,1.024-0.172h1.372v0.563h-1.339c-0.392,0-0.656,0.065-0.792,0.196c-0.136,0.131-0.204,0.289-0.204,0.474
		c0,0.212,0.084,0.382,0.253,0.51c0.168,0.128,0.402,0.192,0.702,0.192c0.294,0,0.551-0.065,0.771-0.196
		c0.22-0.131,0.379-0.321,0.478-0.572l0.155,0.539c-0.103,0.256-0.286,0.458-0.547,0.608
		C21.938,106.848,21.609,106.923,21.211,106.923z M22.632,106.874v-0.915l-0.041-0.171v-1.559c0-0.332-0.097-0.589-0.29-0.771
		c-0.193-0.183-0.483-0.273-0.869-0.273c-0.256,0-0.506,0.042-0.751,0.126c-0.245,0.084-0.452,0.197-0.62,0.339l-0.327-0.588
		c0.223-0.18,0.491-0.317,0.804-0.413c0.313-0.095,0.641-0.143,0.983-0.143c0.593,0,1.051,0.144,1.372,0.433
		c0.321,0.289,0.482,0.729,0.482,1.323v2.612H22.632z"/>
</g>
<g>
	<path fill="#231F20" d="M62.809,106.874v-6.058h0.784v2.882l-0.081,1.004l0.049,1.004v1.167L62.809,106.874L62.809,106.874z
		 M65.104,106.923c-0.371,0-0.703-0.083-1-0.249s-0.531-0.412-0.703-0.739c-0.17-0.327-0.256-0.735-0.256-1.225
		c0-0.49,0.088-0.898,0.266-1.225c0.178-0.327,0.412-0.571,0.711-0.735c0.297-0.163,0.625-0.245,0.982-0.245
		c0.424,0,0.799,0.093,1.127,0.277c0.326,0.185,0.584,0.442,0.775,0.771c0.189,0.33,0.285,0.714,0.285,1.155
		s-0.096,0.828-0.285,1.159c-0.191,0.332-0.449,0.591-0.775,0.776C65.902,106.828,65.527,106.923,65.104,106.923z M65.037,106.237
		c0.277,0,0.527-0.063,0.748-0.188c0.22-0.125,0.395-0.303,0.521-0.535c0.129-0.231,0.19-0.499,0.19-0.804
		c0-0.31-0.063-0.578-0.19-0.804c-0.127-0.226-0.304-0.401-0.521-0.526c-0.221-0.125-0.471-0.188-0.748-0.188
		c-0.271,0-0.518,0.063-0.738,0.188c-0.22,0.125-0.395,0.301-0.521,0.526c-0.129,0.226-0.191,0.494-0.191,0.804
		c0,0.305,0.063,0.573,0.191,0.804c0.127,0.231,0.303,0.41,0.521,0.535C64.52,106.175,64.766,106.237,65.037,106.237z"/>
</g>
<g>
	<path fill="#231F20" d="M32.147,282.423c-0.321,0-0.603-0.054-0.845-0.163c-0.243-0.109-0.429-0.26-0.56-0.453
		c-0.13-0.191-0.196-0.412-0.196-0.656c0-0.232,0.056-0.445,0.167-0.637c0.111-0.189,0.294-0.344,0.547-0.457
		c0.253-0.115,0.595-0.173,1.024-0.173h1.372v0.563h-1.339c-0.392,0-0.656,0.063-0.792,0.195c-0.136,0.131-0.204,0.289-0.204,0.475
		c0,0.212,0.084,0.382,0.253,0.51c0.168,0.128,0.402,0.191,0.702,0.191c0.294,0,0.551-0.064,0.771-0.195
		c0.22-0.131,0.379-0.321,0.478-0.572l0.155,0.539c-0.103,0.256-0.286,0.459-0.547,0.609
		C32.873,282.348,32.544,282.423,32.147,282.423z M33.567,282.374v-0.915l-0.041-0.171v-1.56c0-0.332-0.097-0.59-0.29-0.771
		c-0.193-0.182-0.483-0.273-0.869-0.273c-0.256,0-0.506,0.043-0.751,0.127c-0.245,0.084-0.452,0.197-0.62,0.34l-0.327-0.588
		c0.223-0.181,0.491-0.316,0.804-0.414c0.313-0.094,0.641-0.143,0.983-0.143c0.593,0,1.051,0.145,1.372,0.434
		c0.321,0.289,0.482,0.729,0.482,1.322v2.612H33.567L33.567,282.374z"/>
	<path fill="#231F20" d="M41.029,281.313v-0.678l3.396-1.307v0.377l-3.396-1.307v-0.68l3.659,1.445v0.701L41.029,281.313z"/>
	<path fill="#231F20" d="M51.438,282.374v-6.058h0.785v2.881l-0.082,1.006l0.049,1.004v1.167H51.438L51.438,282.374z
		 M53.732,282.423c-0.371,0-0.705-0.083-1-0.249c-0.297-0.166-0.531-0.412-0.703-0.738c-0.17-0.326-0.256-0.733-0.256-1.225
		c0-0.49,0.088-0.898,0.265-1.225c0.177-0.327,0.414-0.572,0.71-0.735s0.625-0.245,0.984-0.245c0.424,0,0.8,0.094,1.125,0.277
		c0.328,0.186,0.586,0.443,0.775,0.771s0.286,0.715,0.286,1.154s-0.095,0.827-0.286,1.158c-0.189,0.332-0.447,0.592-0.775,0.775
		C54.531,282.328,54.156,282.423,53.732,282.423z M53.667,281.736c0.278,0,0.526-0.063,0.747-0.188
		c0.22-0.125,0.395-0.303,0.521-0.532c0.127-0.231,0.191-0.5,0.191-0.806c0-0.312-0.063-0.578-0.191-0.805
		c-0.127-0.228-0.303-0.401-0.521-0.526c-0.221-0.125-0.469-0.188-0.747-0.188c-0.272,0-0.519,0.063-0.739,0.188
		c-0.22,0.125-0.395,0.303-0.521,0.526c-0.13,0.227-0.192,0.493-0.192,0.805c0,0.306,0.063,0.572,0.192,0.806
		c0.128,0.23,0.302,0.407,0.521,0.532C53.148,281.675,53.395,281.736,53.667,281.736z"/>
	<path fill="#231F20" d="M42.723,293.57c0-0.213,0.035-0.398,0.106-0.557c0.071-0.158,0.16-0.301,0.267-0.426
		c0.105-0.125,0.221-0.238,0.346-0.347c0.125-0.104,0.242-0.212,0.353-0.318c0.108-0.104,0.197-0.22,0.267-0.339
		c0.068-0.119,0.103-0.258,0.103-0.416c0-0.262-0.104-0.475-0.312-0.637c-0.207-0.164-0.492-0.245-0.856-0.245
		c-0.327,0-0.61,0.054-0.849,0.163c-0.24,0.107-0.444,0.271-0.612,0.48l-0.596-0.426c0.229-0.287,0.52-0.513,0.874-0.673
		c0.354-0.161,0.767-0.241,1.241-0.241c0.393,0,0.732,0.059,1.021,0.176s0.513,0.283,0.673,0.498
		c0.159,0.215,0.241,0.477,0.241,0.779c0,0.229-0.036,0.426-0.106,0.588c-0.071,0.164-0.161,0.309-0.271,0.434
		c-0.108,0.125-0.223,0.242-0.346,0.352s-0.238,0.221-0.349,0.327s-0.199,0.229-0.271,0.358c-0.07,0.129-0.105,0.285-0.105,0.467
		L42.723,293.57L42.723,293.57z M43.139,295.423c-0.152,0-0.279-0.052-0.38-0.155c-0.101-0.103-0.151-0.226-0.151-0.367
		c0-0.15,0.05-0.275,0.151-0.375c0.101-0.099,0.228-0.146,0.38-0.146c0.152,0,0.277,0.05,0.375,0.146
		c0.098,0.1,0.147,0.225,0.147,0.375c0,0.144-0.05,0.266-0.147,0.367C43.416,295.371,43.292,295.423,43.139,295.423z"/>
</g>
<g>
	<path fill="none" stroke="#231F20" stroke-width="0.8" stroke-miterlimit="10" d="M21.709,169.573h5.674
		c0.78,0,1.417-0.638,1.417-1.417v-0.765c0-0.78,0.638-1.417,1.417-1.417h0.765c0.78,0,1.417,0.638,1.417,1.417v0.765
		c0,0.78,0.638,1.417,1.417,1.417h0.765c0.78,0,1.417-0.638,1.417-1.417v-0.765c0-0.78,0.638-1.417,1.417-1.417h0.765
		c0.78,0,1.417,0.638,1.417,1.417v0.765c0,0.78,0.638,1.417,1.417,1.417h0.765c0.78,0,1.417-0.638,1.417-1.417v-0.765
		c0-0.78,0.64-1.417,1.418-1.417h0.767c0.779,0,1.417,0.638,1.417,1.417v4.365c0,0.78,0.639,1.417,1.417,1.417h0.769
		c0.777,0,1.416-0.638,1.416-1.417v-4.365c0-0.78,0.639-1.417,1.418-1.417h0.766c0.779,0,1.417,0.638,1.417,1.417v4.365
		c0,0.78,0.638,1.417,1.417,1.417h0.766c0.779,0,1.418-0.638,1.418-1.417v-0.765c0-0.78,0.637-1.417,1.416-1.417h5.65"/>
</g>
<g>
	<circle fill="#D0D2D3" cx="43.186" cy="198.567" r="11.216"/>
	<polygon fill="#929497" points="48.854,188.527 54.518,198.341 48.854,208.152 37.521,208.152 31.855,198.341 37.521,188.527 	"/>
	
		<radialGradient id="SVGID_1_" cx="-58.249" cy="666.918" r="6.3091" gradientTransform="matrix(-1 0 0 1 -15.0625 -468.3525)" gradientUnits="userSpaceOnUse">
		<stop  offset="0.957" style="stop-color:#231F20"/>
		<stop  offset="1" style="stop-color:#4E4F51"/>
	</radialGradient>
	<path fill="url(#SVGID_1_)" d="M36.877,198.566c0-3.483,2.826-6.31,6.311-6.31c3.483,0,6.309,2.825,6.309,6.31
		c0,3.481-2.824,6.308-6.309,6.308S36.877,202.049,36.877,198.566z"/>
	<path fill="#D0D2D3" d="M33.839,198.346c0-1.97,1.592-3.562,3.561-3.562c0.139,0,0.277,0.009,0.416,0.028
		c0.02,0,0.039,0,0.06,0.013l0.861,0.218l0.049,0.018l4.825,0.842l0.07,0.011c1.125,0.228,1.979,1.226,1.979,2.433
		c0,1.217-0.871,2.227-2.027,2.434l-4.986,0.9l-0.722,0.188h-0.009c-0.168,0.029-0.336,0.04-0.515,0.04
		C35.431,201.904,33.839,200.305,33.839,198.346z"/>
</g>
<g>
	<polygon fill="#929497" points="50.35,308.57 36.052,308.57 28.952,320.968 36.052,333.365 50.35,333.365 57.448,320.968 	"/>
	<circle fill="#231F20" stroke="#E6E7E8" stroke-miterlimit="10" cx="43.251" cy="320.968" r="8.499"/>
</g>
<g>
	<polygon fill="#929497" points="28.875,63.739 14.577,63.739 7.477,76.137 14.577,88.534 28.875,88.534 35.973,76.137 	"/>
	<circle fill="#231F20" stroke="#E6E7E8" stroke-miterlimit="10" cx="21.776" cy="76.137" r="8.499"/>
</g>
<g>
	<polygon fill="#929497" points="71.816,63.739 57.52,63.739 50.42,76.137 57.52,88.534 71.816,88.534 78.916,76.137 	"/>
	<circle fill="#231F20" stroke="#E6E7E8" stroke-miterlimit="10" cx="64.719" cy="76.137" r="8.499"/>
</g>
</svg>
