%TF.GenerationSoftware,KiCad,Pcbnew,(6.0.8)*%
%TF.CreationDate,2022-11-09T21:57:33+00:00*%
%TF.ProjectId,kompari,6b6f6d70-6172-4692-9e6b-696361645f70,rev?*%
%TF.SameCoordinates,Original*%
%TF.FileFunction,Legend,Top*%
%TF.FilePolarity,Positive*%
%FSLAX46Y46*%
G04 Gerber Fmt 4.6, Leading zero omitted, Abs format (unit mm)*
G04 Created by KiCad (PCBNEW (6.0.8)) date 2022-11-09 21:57:33*
%MOMM*%
%LPD*%
G01*
G04 APERTURE LIST*
%ADD10C,0.150000*%
%ADD11C,0.120000*%
G04 APERTURE END LIST*
D10*
%TO.C,J1*%
X7286666Y-5872380D02*
X7286666Y-6586666D01*
X7239047Y-6729523D01*
X7143809Y-6824761D01*
X7000952Y-6872380D01*
X6905714Y-6872380D01*
X8286666Y-6872380D02*
X7715238Y-6872380D01*
X8000952Y-6872380D02*
X8000952Y-5872380D01*
X7905714Y-6015238D01*
X7810476Y-6110476D01*
X7715238Y-6158095D01*
%TO.C,SW1*%
X13906666Y-55014761D02*
X14049523Y-55062380D01*
X14287619Y-55062380D01*
X14382857Y-55014761D01*
X14430476Y-54967142D01*
X14478095Y-54871904D01*
X14478095Y-54776666D01*
X14430476Y-54681428D01*
X14382857Y-54633809D01*
X14287619Y-54586190D01*
X14097142Y-54538571D01*
X14001904Y-54490952D01*
X13954285Y-54443333D01*
X13906666Y-54348095D01*
X13906666Y-54252857D01*
X13954285Y-54157619D01*
X14001904Y-54110000D01*
X14097142Y-54062380D01*
X14335238Y-54062380D01*
X14478095Y-54110000D01*
X14811428Y-54062380D02*
X15049523Y-55062380D01*
X15240000Y-54348095D01*
X15430476Y-55062380D01*
X15668571Y-54062380D01*
X16573333Y-55062380D02*
X16001904Y-55062380D01*
X16287619Y-55062380D02*
X16287619Y-54062380D01*
X16192380Y-54205238D01*
X16097142Y-54300476D01*
X16001904Y-54348095D01*
%TO.C,LED3*%
X20470952Y-54032380D02*
X19994761Y-54032380D01*
X19994761Y-53032380D01*
X20804285Y-53508571D02*
X21137619Y-53508571D01*
X21280476Y-54032380D02*
X20804285Y-54032380D01*
X20804285Y-53032380D01*
X21280476Y-53032380D01*
X21709047Y-54032380D02*
X21709047Y-53032380D01*
X21947142Y-53032380D01*
X22090000Y-53080000D01*
X22185238Y-53175238D01*
X22232857Y-53270476D01*
X22280476Y-53460952D01*
X22280476Y-53603809D01*
X22232857Y-53794285D01*
X22185238Y-53889523D01*
X22090000Y-53984761D01*
X21947142Y-54032380D01*
X21709047Y-54032380D01*
X22613809Y-53032380D02*
X23232857Y-53032380D01*
X22899523Y-53413333D01*
X23042380Y-53413333D01*
X23137619Y-53460952D01*
X23185238Y-53508571D01*
X23232857Y-53603809D01*
X23232857Y-53841904D01*
X23185238Y-53937142D01*
X23137619Y-53984761D01*
X23042380Y-54032380D01*
X22756666Y-54032380D01*
X22661428Y-53984761D01*
X22613809Y-53937142D01*
%TO.C,LED1*%
X14120952Y-61412380D02*
X13644761Y-61412380D01*
X13644761Y-60412380D01*
X14454285Y-60888571D02*
X14787619Y-60888571D01*
X14930476Y-61412380D02*
X14454285Y-61412380D01*
X14454285Y-60412380D01*
X14930476Y-60412380D01*
X15359047Y-61412380D02*
X15359047Y-60412380D01*
X15597142Y-60412380D01*
X15740000Y-60460000D01*
X15835238Y-60555238D01*
X15882857Y-60650476D01*
X15930476Y-60840952D01*
X15930476Y-60983809D01*
X15882857Y-61174285D01*
X15835238Y-61269523D01*
X15740000Y-61364761D01*
X15597142Y-61412380D01*
X15359047Y-61412380D01*
X16882857Y-61412380D02*
X16311428Y-61412380D01*
X16597142Y-61412380D02*
X16597142Y-60412380D01*
X16501904Y-60555238D01*
X16406666Y-60650476D01*
X16311428Y-60698095D01*
%TO.C,J2*%
X22526666Y-5872380D02*
X22526666Y-6586666D01*
X22479047Y-6729523D01*
X22383809Y-6824761D01*
X22240952Y-6872380D01*
X22145714Y-6872380D01*
X22955238Y-5967619D02*
X23002857Y-5920000D01*
X23098095Y-5872380D01*
X23336190Y-5872380D01*
X23431428Y-5920000D01*
X23479047Y-5967619D01*
X23526666Y-6062857D01*
X23526666Y-6158095D01*
X23479047Y-6300952D01*
X22907619Y-6872380D01*
X23526666Y-6872380D01*
%TO.C,P2*%
X22121904Y-25952380D02*
X22121904Y-24952380D01*
X22502857Y-24952380D01*
X22598095Y-25000000D01*
X22645714Y-25047619D01*
X22693333Y-25142857D01*
X22693333Y-25285714D01*
X22645714Y-25380952D01*
X22598095Y-25428571D01*
X22502857Y-25476190D01*
X22121904Y-25476190D01*
X23074285Y-25047619D02*
X23121904Y-25000000D01*
X23217142Y-24952380D01*
X23455238Y-24952380D01*
X23550476Y-25000000D01*
X23598095Y-25047619D01*
X23645714Y-25142857D01*
X23645714Y-25238095D01*
X23598095Y-25380952D01*
X23026666Y-25952380D01*
X23645714Y-25952380D01*
%TO.C,LED2*%
X7750952Y-54032380D02*
X7274761Y-54032380D01*
X7274761Y-53032380D01*
X8084285Y-53508571D02*
X8417619Y-53508571D01*
X8560476Y-54032380D02*
X8084285Y-54032380D01*
X8084285Y-53032380D01*
X8560476Y-53032380D01*
X8989047Y-54032380D02*
X8989047Y-53032380D01*
X9227142Y-53032380D01*
X9370000Y-53080000D01*
X9465238Y-53175238D01*
X9512857Y-53270476D01*
X9560476Y-53460952D01*
X9560476Y-53603809D01*
X9512857Y-53794285D01*
X9465238Y-53889523D01*
X9370000Y-53984761D01*
X9227142Y-54032380D01*
X8989047Y-54032380D01*
X9941428Y-53127619D02*
X9989047Y-53080000D01*
X10084285Y-53032380D01*
X10322380Y-53032380D01*
X10417619Y-53080000D01*
X10465238Y-53127619D01*
X10512857Y-53222857D01*
X10512857Y-53318095D01*
X10465238Y-53460952D01*
X9893809Y-54032380D01*
X10512857Y-54032380D01*
%TO.C,J4*%
X13706666Y-93432380D02*
X13706666Y-94146666D01*
X13659047Y-94289523D01*
X13563809Y-94384761D01*
X13420952Y-94432380D01*
X13325714Y-94432380D01*
X14611428Y-93765714D02*
X14611428Y-94432380D01*
X14373333Y-93384761D02*
X14135238Y-94099047D01*
X14754285Y-94099047D01*
%TO.C,P1*%
X6881904Y-25952380D02*
X6881904Y-24952380D01*
X7262857Y-24952380D01*
X7358095Y-25000000D01*
X7405714Y-25047619D01*
X7453333Y-25142857D01*
X7453333Y-25285714D01*
X7405714Y-25380952D01*
X7358095Y-25428571D01*
X7262857Y-25476190D01*
X6881904Y-25476190D01*
X8405714Y-25952380D02*
X7834285Y-25952380D01*
X8120000Y-25952380D02*
X8120000Y-24952380D01*
X8024761Y-25095238D01*
X7929523Y-25190476D01*
X7834285Y-25238095D01*
%TO.C,P3*%
X14501904Y-71672380D02*
X14501904Y-70672380D01*
X14882857Y-70672380D01*
X14978095Y-70720000D01*
X15025714Y-70767619D01*
X15073333Y-70862857D01*
X15073333Y-71005714D01*
X15025714Y-71100952D01*
X14978095Y-71148571D01*
X14882857Y-71196190D01*
X14501904Y-71196190D01*
X15406666Y-70672380D02*
X16025714Y-70672380D01*
X15692380Y-71053333D01*
X15835238Y-71053333D01*
X15930476Y-71100952D01*
X15978095Y-71148571D01*
X16025714Y-71243809D01*
X16025714Y-71481904D01*
X15978095Y-71577142D01*
X15930476Y-71624761D01*
X15835238Y-71672380D01*
X15549523Y-71672380D01*
X15454285Y-71624761D01*
X15406666Y-71577142D01*
D11*
%TO.C,J1*%
X12120000Y-12120000D02*
X3120000Y-12120000D01*
X3120000Y-12120000D02*
X3120000Y-1620000D01*
X3120000Y-1620000D02*
X12120000Y-1620000D01*
X12120000Y-1620000D02*
X12120000Y-12120000D01*
%TO.C,SW1*%
X11240000Y-48260000D02*
X19240000Y-48260000D01*
X19240000Y-48260000D02*
X19240000Y-53340000D01*
X19240000Y-53340000D02*
X11240000Y-53340000D01*
X11240000Y-53340000D02*
X11240000Y-48260000D01*
X17036051Y-50800000D02*
G75*
G03*
X17036051Y-50800000I-1796051J0D01*
G01*
%TO.C,LED3*%
X23090000Y-55880000D02*
G75*
G03*
X23090000Y-55880000I-1500000J0D01*
G01*
G36*
X22390000Y-54680000D02*
G01*
X22690000Y-54980000D01*
X22990000Y-55480000D01*
X22990000Y-56080000D01*
X22890000Y-56580000D01*
X22490000Y-56980000D01*
X22090000Y-57280000D01*
X22090000Y-54480000D01*
X22390000Y-54680000D01*
G37*
X22390000Y-54680000D02*
X22690000Y-54980000D01*
X22990000Y-55480000D01*
X22990000Y-56080000D01*
X22890000Y-56580000D01*
X22490000Y-56980000D01*
X22090000Y-57280000D01*
X22090000Y-54480000D01*
X22390000Y-54680000D01*
%TO.C,LED1*%
X16740000Y-58420000D02*
G75*
G03*
X16740000Y-58420000I-1500000J0D01*
G01*
G36*
X16040000Y-57220000D02*
G01*
X16340000Y-57520000D01*
X16640000Y-58020000D01*
X16640000Y-58620000D01*
X16540000Y-59120000D01*
X16140000Y-59520000D01*
X15740000Y-59820000D01*
X15740000Y-57020000D01*
X16040000Y-57220000D01*
G37*
X16040000Y-57220000D02*
X16340000Y-57520000D01*
X16640000Y-58020000D01*
X16640000Y-58620000D01*
X16540000Y-59120000D01*
X16140000Y-59520000D01*
X15740000Y-59820000D01*
X15740000Y-57020000D01*
X16040000Y-57220000D01*
%TO.C,J2*%
X27360000Y-12120000D02*
X18360000Y-12120000D01*
X18360000Y-12120000D02*
X18360000Y-1620000D01*
X18360000Y-1620000D02*
X27360000Y-1620000D01*
X27360000Y-1620000D02*
X27360000Y-12120000D01*
%TO.C,P2*%
X27660000Y-32550000D02*
X18060000Y-32550000D01*
X26360000Y-23500000D02*
X27660000Y-23500000D01*
X20360000Y-32600000D02*
X20360000Y-29400000D01*
X27660000Y-22000000D02*
X27660000Y-32550000D01*
X18060000Y-32550000D02*
X18060000Y-22000000D01*
X19860000Y-28900000D02*
X18060000Y-28900000D01*
X25860000Y-21200000D02*
X25860000Y-23000000D01*
X26860000Y-21200000D02*
X18860000Y-21200000D01*
X20360000Y-29400000D02*
G75*
G03*
X19860000Y-28900000I-500001J-1D01*
G01*
X25860000Y-23000000D02*
G75*
G03*
X26360000Y-23500000I500000J0D01*
G01*
X18860000Y-21200000D02*
G75*
G03*
X18060000Y-22000000I1J-800001D01*
G01*
X27660000Y-22000000D02*
G75*
G03*
X26860000Y-21200000I-800000J0D01*
G01*
X25860000Y-25400000D02*
G75*
G03*
X25860000Y-25400000I-3000000J0D01*
G01*
X25360000Y-25400000D02*
G75*
G03*
X25360000Y-25400000I-2500000J0D01*
G01*
%TO.C,LED2*%
X10370000Y-55880000D02*
G75*
G03*
X10370000Y-55880000I-1500000J0D01*
G01*
G36*
X9670000Y-54680000D02*
G01*
X9970000Y-54980000D01*
X10270000Y-55480000D01*
X10270000Y-56080000D01*
X10170000Y-56580000D01*
X9770000Y-56980000D01*
X9370000Y-57280000D01*
X9370000Y-54480000D01*
X9670000Y-54680000D01*
G37*
X9670000Y-54680000D02*
X9970000Y-54980000D01*
X10270000Y-55480000D01*
X10270000Y-56080000D01*
X10170000Y-56580000D01*
X9770000Y-56980000D01*
X9370000Y-57280000D01*
X9370000Y-54480000D01*
X9670000Y-54680000D01*
%TO.C,J4*%
X19740000Y-89480000D02*
X9240000Y-89480000D01*
X9240000Y-89480000D02*
X9240000Y-98480000D01*
X9240000Y-98480000D02*
X19740000Y-98480000D01*
X19740000Y-98480000D02*
X19740000Y-89480000D01*
%TO.C,P1*%
X10620000Y-21200000D02*
X10620000Y-23000000D01*
X5120000Y-32600000D02*
X5120000Y-29400000D01*
X2820000Y-32550000D02*
X2820000Y-22000000D01*
X4620000Y-28900000D02*
X2820000Y-28900000D01*
X11120000Y-23500000D02*
X12420000Y-23500000D01*
X11620000Y-21200000D02*
X3620000Y-21200000D01*
X12420000Y-22000000D02*
X12420000Y-32550000D01*
X12420000Y-32550000D02*
X2820000Y-32550000D01*
X12420000Y-22000000D02*
G75*
G03*
X11620000Y-21200000I-800000J0D01*
G01*
X10620000Y-23000000D02*
G75*
G03*
X11120000Y-23500000I500000J0D01*
G01*
X5120000Y-29400000D02*
G75*
G03*
X4620000Y-28900000I-500001J-1D01*
G01*
X3620000Y-21200000D02*
G75*
G03*
X2820000Y-22000000I1J-800001D01*
G01*
X10120000Y-25400000D02*
G75*
G03*
X10120000Y-25400000I-2500000J0D01*
G01*
X10620000Y-25400000D02*
G75*
G03*
X10620000Y-25400000I-3000000J0D01*
G01*
%TO.C,P3*%
X12740000Y-78320000D02*
X12740000Y-75120000D01*
X12240000Y-74620000D02*
X10440000Y-74620000D01*
X18740000Y-69220000D02*
X20040000Y-69220000D01*
X10440000Y-78270000D02*
X10440000Y-67720000D01*
X19240000Y-66920000D02*
X11240000Y-66920000D01*
X18240000Y-66920000D02*
X18240000Y-68720000D01*
X20040000Y-78270000D02*
X10440000Y-78270000D01*
X20040000Y-67720000D02*
X20040000Y-78270000D01*
X18240000Y-68720000D02*
G75*
G03*
X18740000Y-69220000I500000J0D01*
G01*
X12740000Y-75120000D02*
G75*
G03*
X12240000Y-74620000I-500001J-1D01*
G01*
X20040000Y-67720000D02*
G75*
G03*
X19240000Y-66920000I-800000J0D01*
G01*
X11240000Y-66920000D02*
G75*
G03*
X10440000Y-67720000I1J-800001D01*
G01*
X18240000Y-71120000D02*
G75*
G03*
X18240000Y-71120000I-3000000J0D01*
G01*
X17740000Y-71120000D02*
G75*
G03*
X17740000Y-71120000I-2500000J0D01*
G01*
%TD*%
M02*
