M48
; DRILL file {KiCad (6.0.8)} date Wed Oct 19 15:09:32 2022
; FORMAT={-:-/ absolute / inch / decimal}
; #@! TF.CreationDate,2022-10-19T15:09:32+01:00
; #@! TF.GenerationSoftware,Kicad,Pcbnew,(6.0.8)
; #@! TF.FileFunction,Plated,1,2,PTH
FMAT,2
INCH
; #@! TA.AperFunction,Plated,PTH,ViaDrill
T1C0.0157
; #@! TA.AperFunction,Plated,PTH,ComponentDrill
T2C0.0300
; #@! TA.AperFunction,Plated,PTH,ComponentDrill
T3C0.0315
; #@! TA.AperFunction,Plated,PTH,ComponentDrill
T4C0.0394
; #@! TA.AperFunction,Plated,PTH,ComponentDrill
T5C0.0433
; #@! TA.AperFunction,Plated,PTH,ComponentDrill
T6C0.0472
%
G90
G05
T1
X0.15Y-1.7
X0.2Y-2.05
X0.2Y-2.2
X0.2215Y-1.6
X0.295Y-1.83
X0.3Y-1.55
X0.3Y-1.65
X0.4Y-3.15
X0.5Y-2.45
X0.5016Y-3.3566
X0.535Y-1.855
X0.55Y-1.95
X0.6Y-1.6
X0.6Y-1.85
X0.6Y-2.1
X0.6198Y-2.1802
X0.6393Y-1.3892
X0.65Y-2.05
X0.7Y-0.8
X0.7215Y-1.905
X0.725Y-2.13
X0.75Y-2.5
X0.85Y-2.095
X0.85Y-2.4
X1.0285Y-2.475
X1.1Y-1.65
X1.12Y-2.295
T2
X0.15Y-1.9327
X0.15Y-2.2673
X0.15Y-2.3827
X0.15Y-2.7173
X0.15Y-2.8327
X0.15Y-3.1673
X0.25Y-2.2827
X0.25Y-2.6173
X0.3Y-2.2
X0.3Y-3.21
X0.3Y-3.3084
X0.3Y-3.46
X0.3Y-3.5584
X0.35Y-2.2827
X0.35Y-2.6173
X0.3984Y-2.2
X0.45Y-2.2827
X0.45Y-2.6173
X0.5Y-2.0
X0.55Y-0.25
X0.55Y-0.35
X0.55Y-0.45
X0.55Y-0.55
X0.55Y-0.65
X0.5508Y-2.3
X0.5516Y-1.3
X0.6Y-2.0
X0.6492Y-2.3
X0.65Y-0.25
X0.65Y-0.35
X0.65Y-0.45
X0.65Y-0.55
X0.65Y-0.65
X0.65Y-1.3
X0.7Y-2.0
X0.75Y-2.2827
X0.75Y-2.6173
X0.8008Y-2.2
X0.8258Y-1.95
X0.85Y-2.2827
X0.85Y-2.6173
X0.8992Y-2.2
X0.9242Y-1.95
X0.95Y-2.2827
X0.95Y-2.6173
X0.95Y-2.8327
X0.95Y-3.1673
X0.95Y-3.2827
X0.95Y-3.6173
X1.05Y-1.9327
X1.05Y-2.2673
X1.05Y-2.3827
X1.05Y-2.7173
X1.05Y-2.8327
X1.05Y-3.1673
X1.05Y-3.2827
X1.05Y-3.6173
T3
X0.3992Y-1.4496
X0.3992Y-1.7496
X0.4992Y-1.4496
X0.4992Y-1.7496
X0.5992Y-1.4496
X0.5992Y-1.7496
X0.6992Y-1.4496
X0.6992Y-1.7496
X0.7992Y-1.4496
X0.7992Y-1.7496
X0.8992Y-1.4496
X0.8992Y-1.7496
X0.9992Y-1.4496
X0.9992Y-1.7496
T4
X0.2016Y-1.2953
X0.3Y-0.5362
X0.3Y-1.2953
X0.3984Y-1.2953
X0.5016Y-3.0953
X0.6Y-3.0953
X0.6984Y-3.0953
X0.8016Y-1.2953
X0.8362Y-3.7
X0.9Y-0.5362
X0.9Y-1.2953
X0.9984Y-1.2953
T5
X0.15Y-0.55
X0.15Y-0.85
X0.15Y-1.5
X0.15Y-1.8
X1.05Y-0.55
X1.05Y-0.85
T6
X0.3Y-0.0874
X0.3Y-0.4142
X0.3874Y-3.7
X0.7142Y-3.7
X0.9Y-0.0874
X0.9Y-0.4142
T0
M30
