%TF.GenerationSoftware,KiCad,Pcbnew,(6.0.8)*%
%TF.CreationDate,2022-10-19T13:46:58+01:00*%
%TF.ProjectId,kompari,6b6f6d70-6172-4692-9e6b-696361645f70,rev?*%
%TF.SameCoordinates,Original*%
%TF.FileFunction,Soldermask,Bot*%
%TF.FilePolarity,Negative*%
%FSLAX46Y46*%
G04 Gerber Fmt 4.6, Leading zero omitted, Abs format (unit mm)*
G04 Created by KiCad (PCBNEW (6.0.8)) date 2022-10-19 13:46:58*
%MOMM*%
%LPD*%
G01*
G04 APERTURE LIST*
%ADD10C,2.000000*%
%ADD11C,1.524000*%
%ADD12C,1.500000*%
%ADD13O,2.200000X2.200000*%
%ADD14R,2.200000X2.200000*%
%ADD15R,1.600000X1.600000*%
%ADD16O,1.600000X1.600000*%
G04 APERTURE END LIST*
D10*
%TO.C,J1*%
X7620000Y-13620000D03*
X7620000Y-10520000D03*
X7620000Y-2220000D03*
%TD*%
D11*
%TO.C,SW1*%
X17780000Y-50800000D03*
X15240000Y-50800000D03*
X12700000Y-50800000D03*
%TD*%
%TO.C,LED3*%
X20340000Y-55880000D03*
X22840000Y-55880000D03*
%TD*%
%TO.C,LED1*%
X13990000Y-58420000D03*
X16490000Y-58420000D03*
%TD*%
D10*
%TO.C,J2*%
X22860000Y-13620000D03*
X22860000Y-10520000D03*
X22860000Y-2220000D03*
%TD*%
D12*
%TO.C,P2*%
X20360000Y-32900000D03*
X22860000Y-32900000D03*
X25360000Y-32900000D03*
%TD*%
D11*
%TO.C,LED2*%
X7620000Y-55880000D03*
X10120000Y-55880000D03*
%TD*%
D10*
%TO.C,J4*%
X21240000Y-93980000D03*
X18140000Y-93980000D03*
X9840000Y-93980000D03*
%TD*%
D12*
%TO.C,P1*%
X5120000Y-32900000D03*
X7620000Y-32900000D03*
X10120000Y-32900000D03*
%TD*%
%TO.C,P3*%
X12740000Y-78620000D03*
X15240000Y-78620000D03*
X17740000Y-78620000D03*
%TD*%
D11*
%TO.C,C1*%
X7620000Y-87884000D03*
X7620000Y-90384000D03*
%TD*%
%TO.C,R11*%
X3810000Y-80450000D03*
X3810000Y-71950000D03*
%TD*%
%TO.C,R10*%
X21590000Y-57980000D03*
X21590000Y-66480000D03*
%TD*%
%TO.C,R12*%
X24130000Y-57980000D03*
X24130000Y-66480000D03*
%TD*%
%TO.C,C4*%
X16510000Y-33020000D03*
X14010000Y-33020000D03*
%TD*%
%TO.C,R8*%
X26670000Y-83380000D03*
X26670000Y-91880000D03*
%TD*%
%TO.C,C3*%
X20975000Y-49530000D03*
X23475000Y-49530000D03*
%TD*%
%TO.C,R6*%
X26670000Y-71950000D03*
X26670000Y-80450000D03*
%TD*%
D13*
%TO.C,D3*%
X3810000Y-38100000D03*
D14*
X3810000Y-45720000D03*
%TD*%
D11*
%TO.C,R3*%
X3810000Y-57590000D03*
X3810000Y-49090000D03*
%TD*%
%TO.C,R4*%
X26670000Y-60520000D03*
X26670000Y-69020000D03*
%TD*%
%TO.C,R9*%
X11430000Y-57980000D03*
X11430000Y-66480000D03*
%TD*%
%TO.C,R5*%
X24130000Y-71950000D03*
X24130000Y-80450000D03*
%TD*%
%TO.C,R2*%
X26670000Y-49090000D03*
X26670000Y-57590000D03*
%TD*%
%TO.C,R14*%
X19050000Y-57980000D03*
X19050000Y-66480000D03*
%TD*%
%TO.C,J3*%
X13970000Y-16510000D03*
X16510000Y-16510000D03*
X13970000Y-13970000D03*
X16510000Y-13970000D03*
X13970000Y-11430000D03*
X16510000Y-11430000D03*
X13970000Y-8890000D03*
X16510000Y-8890000D03*
X13970000Y-6350000D03*
X16510000Y-6350000D03*
%TD*%
%TO.C,R1*%
X3810000Y-69020000D03*
X3810000Y-60520000D03*
%TD*%
D13*
%TO.C,D1*%
X3810000Y-21590000D03*
D14*
X3810000Y-13970000D03*
%TD*%
D11*
%TO.C,C2*%
X7620000Y-84034000D03*
X7620000Y-81534000D03*
%TD*%
%TO.C,R15*%
X8890000Y-57980000D03*
X8890000Y-66480000D03*
%TD*%
D15*
%TO.C,U1*%
X25380000Y-44440000D03*
D16*
X22840000Y-44440000D03*
X20300000Y-44440000D03*
X17760000Y-44440000D03*
X15220000Y-44440000D03*
X12680000Y-44440000D03*
X10140000Y-44440000D03*
X10140000Y-36820000D03*
X12680000Y-36820000D03*
X15220000Y-36820000D03*
X17760000Y-36820000D03*
X20300000Y-36820000D03*
X22840000Y-36820000D03*
X25380000Y-36820000D03*
%TD*%
D14*
%TO.C,D2*%
X26670000Y-13970000D03*
D13*
X26670000Y-21590000D03*
%TD*%
D11*
%TO.C,R13*%
X6350000Y-66480000D03*
X6350000Y-57980000D03*
%TD*%
%TO.C,R7*%
X24130000Y-83380000D03*
X24130000Y-91880000D03*
%TD*%
M02*
