%TF.GenerationSoftware,KiCad,Pcbnew,(6.0.2)*%
%TF.CreationDate,2022-09-20T10:33:02+01:00*%
%TF.ProjectId,kompari,6b6f6d70-6172-4692-9e6b-696361645f70,rev?*%
%TF.SameCoordinates,Original*%
%TF.FileFunction,Copper,L1,Top*%
%TF.FilePolarity,Positive*%
%FSLAX46Y46*%
G04 Gerber Fmt 4.6, Leading zero omitted, Abs format (unit mm)*
G04 Created by KiCad (PCBNEW (6.0.2)) date 2022-09-20 10:33:02*
%MOMM*%
%LPD*%
G01*
G04 APERTURE LIST*
%TA.AperFunction,ComponentPad*%
%ADD10C,2.000000*%
%TD*%
%TA.AperFunction,ComponentPad*%
%ADD11C,1.524000*%
%TD*%
%TA.AperFunction,ComponentPad*%
%ADD12C,1.500000*%
%TD*%
%TA.AperFunction,ComponentPad*%
%ADD13O,2.200000X2.200000*%
%TD*%
%TA.AperFunction,ComponentPad*%
%ADD14R,2.200000X2.200000*%
%TD*%
%TA.AperFunction,ComponentPad*%
%ADD15R,1.600000X1.600000*%
%TD*%
%TA.AperFunction,ComponentPad*%
%ADD16O,1.600000X1.600000*%
%TD*%
%TA.AperFunction,ViaPad*%
%ADD17C,0.800000*%
%TD*%
%TA.AperFunction,Conductor*%
%ADD18C,0.250000*%
%TD*%
G04 APERTURE END LIST*
D10*
%TO.P,J1,1,E*%
%TO.N,Earth*%
X7620000Y-13620000D03*
%TO.P,J1,2,TN*%
%TO.N,+12V*%
X7620000Y-10520000D03*
%TO.P,J1,3,T*%
%TO.N,Net-(J1-Pad3)*%
X7620000Y-2220000D03*
%TD*%
D11*
%TO.P,SW1,1,A*%
%TO.N,Net-(D3-Pad2)*%
X12700000Y-50800000D03*
%TO.P,SW1,2,B*%
%TO.N,Net-(R15-Pad1)*%
X15240000Y-50800000D03*
%TO.P,SW1,3,C*%
%TO.N,Net-(D3-Pad1)*%
X17780000Y-50800000D03*
%TD*%
%TO.P,LED3,1,KA*%
%TO.N,Net-(LED3-Pad1)*%
X20340000Y-55880000D03*
%TO.P,LED3,2,AK*%
%TO.N,Earth*%
X22840000Y-55880000D03*
%TD*%
%TO.P,LED1,1,KA*%
%TO.N,Net-(LED1-Pad1)*%
X13990000Y-58420000D03*
%TO.P,LED1,2,AK*%
%TO.N,Earth*%
X16490000Y-58420000D03*
%TD*%
D10*
%TO.P,J2,1,E*%
%TO.N,Earth*%
X22860000Y-13620000D03*
%TO.P,J2,2,TN*%
%TO.N,+12V*%
X22860000Y-10520000D03*
%TO.P,J2,3,T*%
%TO.N,Net-(J2-Pad3)*%
X22860000Y-2220000D03*
%TD*%
D12*
%TO.P,P2,1,1*%
%TO.N,Earth*%
X20360000Y-32900000D03*
%TO.P,P2,2,2*%
%TO.N,Net-(P2-Pad2)*%
X22860000Y-32900000D03*
%TO.P,P2,3,3*%
%TO.N,Net-(P2-Pad3)*%
X25360000Y-32900000D03*
%TD*%
D11*
%TO.P,LED2,1,KA*%
%TO.N,Net-(LED2-Pad1)*%
X7620000Y-55880000D03*
%TO.P,LED2,2,AK*%
%TO.N,Earth*%
X10120000Y-55880000D03*
%TD*%
D10*
%TO.P,J4,1,E*%
%TO.N,Earth*%
X21240000Y-93980000D03*
%TO.P,J4,2,TN*%
%TO.N,unconnected-(J4-Pad2)*%
X18140000Y-93980000D03*
%TO.P,J4,3,T*%
%TO.N,Net-(J4-Pad3)*%
X9840000Y-93980000D03*
%TD*%
D12*
%TO.P,P1,1,1*%
%TO.N,Earth*%
X5120000Y-32900000D03*
%TO.P,P1,2,2*%
%TO.N,Net-(P1-Pad2)*%
X7620000Y-32900000D03*
%TO.P,P1,3,3*%
%TO.N,Net-(P1-Pad3)*%
X10120000Y-32900000D03*
%TD*%
%TO.P,P3,1,1*%
%TO.N,Earth*%
X12740000Y-78620000D03*
%TO.P,P3,2,2*%
%TO.N,Net-(P3-Pad2)*%
X15240000Y-78620000D03*
%TO.P,P3,3,3*%
%TO.N,Net-(P3-Pad3)*%
X17740000Y-78620000D03*
%TD*%
D11*
%TO.P,C1,1*%
%TO.N,+12V*%
X6350000Y-85090000D03*
%TO.P,C1,2*%
%TO.N,Earth*%
X3850000Y-85090000D03*
%TD*%
%TO.P,R11,1*%
%TO.N,Earth*%
X3810000Y-80450000D03*
%TO.P,R11,2*%
%TO.N,Net-(P1-Pad3)*%
X3810000Y-71950000D03*
%TD*%
%TO.P,R10,1*%
%TO.N,Net-(J2-Pad3)*%
X21590000Y-57980000D03*
%TO.P,R10,2*%
%TO.N,Net-(P2-Pad3)*%
X21590000Y-66480000D03*
%TD*%
%TO.P,R12,1*%
%TO.N,Earth*%
X24130000Y-57980000D03*
%TO.P,R12,2*%
%TO.N,Net-(P2-Pad3)*%
X24130000Y-66480000D03*
%TD*%
%TO.P,C4,1*%
%TO.N,Earth*%
X16510000Y-33020000D03*
%TO.P,C4,2*%
%TO.N,-12V*%
X14010000Y-33020000D03*
%TD*%
%TO.P,R8,1*%
%TO.N,Net-(R6-Pad2)*%
X26670000Y-83380000D03*
%TO.P,R8,2*%
%TO.N,Net-(J4-Pad3)*%
X26670000Y-91880000D03*
%TD*%
%TO.P,C3,1*%
%TO.N,+12V*%
X20975000Y-49530000D03*
%TO.P,C3,2*%
%TO.N,Earth*%
X23475000Y-49530000D03*
%TD*%
%TO.P,R6,1*%
%TO.N,Net-(R5-Pad2)*%
X26670000Y-71950000D03*
%TO.P,R6,2*%
%TO.N,Net-(R6-Pad2)*%
X26670000Y-80450000D03*
%TD*%
D13*
%TO.P,D3,1,A*%
%TO.N,Net-(D3-Pad1)*%
X3810000Y-38100000D03*
D14*
%TO.P,D3,2,K*%
%TO.N,Net-(D3-Pad2)*%
X3810000Y-45720000D03*
%TD*%
D11*
%TO.P,R3,1*%
%TO.N,Net-(R1-Pad2)*%
X3810000Y-57590000D03*
%TO.P,R3,2*%
%TO.N,Net-(R13-Pad2)*%
X3810000Y-49090000D03*
%TD*%
%TO.P,R4,1*%
%TO.N,Net-(R2-Pad2)*%
X26670000Y-60520000D03*
%TO.P,R4,2*%
%TO.N,Net-(R14-Pad2)*%
X26670000Y-69020000D03*
%TD*%
%TO.P,R9,1*%
%TO.N,Net-(J1-Pad3)*%
X11430000Y-57980000D03*
%TO.P,R9,2*%
%TO.N,Net-(P1-Pad3)*%
X11430000Y-66480000D03*
%TD*%
%TO.P,R5,1*%
%TO.N,Net-(P3-Pad3)*%
X24130000Y-71950000D03*
%TO.P,R5,2*%
%TO.N,Net-(R5-Pad2)*%
X24130000Y-80450000D03*
%TD*%
%TO.P,R2,1*%
%TO.N,Net-(P2-Pad3)*%
X26670000Y-49090000D03*
%TO.P,R2,2*%
%TO.N,Net-(R2-Pad2)*%
X26670000Y-57590000D03*
%TD*%
%TO.P,R14,1*%
%TO.N,Net-(LED3-Pad1)*%
X19050000Y-57980000D03*
%TO.P,R14,2*%
%TO.N,Net-(R14-Pad2)*%
X19050000Y-66480000D03*
%TD*%
%TO.P,J3,1,Pin_1*%
%TO.N,Net-(D2-Pad2)*%
X13970000Y-16510000D03*
%TO.P,J3,2,Pin_2*%
X16510000Y-16510000D03*
%TO.P,J3,3,Pin_3*%
%TO.N,Net-(J3-Pad3)*%
X13970000Y-13970000D03*
%TO.P,J3,4,Pin_4*%
X16510000Y-13970000D03*
%TO.P,J3,5,Pin_5*%
%TO.N,Earth*%
X13970000Y-11430000D03*
%TO.P,J3,6,Pin_6*%
X16510000Y-11430000D03*
%TO.P,J3,7,Pin_7*%
%TO.N,Net-(J3-Pad7)*%
X13970000Y-8890000D03*
%TO.P,J3,8,Pin_8*%
X16510000Y-8890000D03*
%TO.P,J3,9,Pin_9*%
%TO.N,Net-(D1-Pad1)*%
X13970000Y-6350000D03*
%TO.P,J3,10,Pin_10*%
X16510000Y-6350000D03*
%TD*%
%TO.P,R1,1*%
%TO.N,Net-(P1-Pad3)*%
X3810000Y-69020000D03*
%TO.P,R1,2*%
%TO.N,Net-(R1-Pad2)*%
X3810000Y-60520000D03*
%TD*%
D13*
%TO.P,D1,1,A*%
%TO.N,Net-(D1-Pad1)*%
X3810000Y-21590000D03*
D14*
%TO.P,D1,2,K*%
%TO.N,+12V*%
X3810000Y-13970000D03*
%TD*%
D11*
%TO.P,C2,1*%
%TO.N,Earth*%
X12700000Y-85090000D03*
%TO.P,C2,2*%
%TO.N,-12V*%
X10200000Y-85090000D03*
%TD*%
%TO.P,R15,1*%
%TO.N,Net-(R15-Pad1)*%
X8890000Y-57980000D03*
%TO.P,R15,2*%
%TO.N,Net-(P3-Pad3)*%
X8890000Y-66480000D03*
%TD*%
D15*
%TO.P,U1,1*%
%TO.N,Net-(R13-Pad2)*%
X25380000Y-44440000D03*
D16*
%TO.P,U1,2,-*%
%TO.N,Net-(R1-Pad2)*%
X22840000Y-44440000D03*
%TO.P,U1,3,+*%
%TO.N,Net-(P1-Pad2)*%
X20300000Y-44440000D03*
%TO.P,U1,4,V+*%
%TO.N,+12V*%
X17760000Y-44440000D03*
%TO.P,U1,5,+*%
%TO.N,Net-(P2-Pad2)*%
X15220000Y-44440000D03*
%TO.P,U1,6,-*%
%TO.N,Net-(R2-Pad2)*%
X12680000Y-44440000D03*
%TO.P,U1,7*%
%TO.N,Net-(R14-Pad2)*%
X10140000Y-44440000D03*
%TO.P,U1,8*%
%TO.N,Net-(D3-Pad1)*%
X10140000Y-36820000D03*
%TO.P,U1,9,-*%
%TO.N,Net-(R14-Pad2)*%
X12680000Y-36820000D03*
%TO.P,U1,10,+*%
%TO.N,Net-(R13-Pad2)*%
X15220000Y-36820000D03*
%TO.P,U1,11,V-*%
%TO.N,-12V*%
X17760000Y-36820000D03*
%TO.P,U1,12,+*%
%TO.N,Net-(P3-Pad2)*%
X20300000Y-36820000D03*
%TO.P,U1,13,-*%
%TO.N,Net-(R5-Pad2)*%
X22840000Y-36820000D03*
%TO.P,U1,14*%
%TO.N,Net-(R6-Pad2)*%
X25380000Y-36820000D03*
%TD*%
D13*
%TO.P,D2,1,A*%
%TO.N,-12V*%
X26670000Y-21590000D03*
D14*
%TO.P,D2,2,K*%
%TO.N,Net-(D2-Pad2)*%
X26670000Y-13970000D03*
%TD*%
D11*
%TO.P,R13,1*%
%TO.N,Net-(LED2-Pad1)*%
X6350000Y-66480000D03*
%TO.P,R13,2*%
%TO.N,Net-(R13-Pad2)*%
X6350000Y-57980000D03*
%TD*%
%TO.P,R7,1*%
%TO.N,Net-(LED1-Pad1)*%
X24130000Y-83380000D03*
%TO.P,R7,2*%
%TO.N,Net-(P3-Pad3)*%
X24130000Y-91880000D03*
%TD*%
D17*
%TO.N,+12V*%
X3810000Y-43180000D03*
X17234500Y-48260000D03*
%TO.N,Earth*%
X6738224Y-31367625D03*
X24130000Y-46990000D03*
X27940000Y-33020000D03*
X27940000Y-44450000D03*
%TO.N,-12V*%
X5080000Y-55880000D03*
X17780000Y-20320000D03*
X16510000Y-52070000D03*
%TO.N,Net-(D3-Pad1)*%
X7577551Y-44492449D03*
X18325500Y-46265500D03*
X7620000Y-39370000D03*
%TO.N,Net-(P1-Pad2)*%
X7620000Y-41910000D03*
%TO.N,Net-(P2-Pad2)*%
X16510000Y-35560000D03*
%TO.N,Net-(R1-Pad2)*%
X13970000Y-49530000D03*
X15240000Y-46990000D03*
X5080000Y-52070000D03*
%TO.N,Net-(R2-Pad2)*%
X15742299Y-55377701D03*
%TO.N,Net-(LED1-Pad1)*%
X26670000Y-62230000D03*
%TO.N,Net-(R13-Pad2)*%
X5625500Y-40640000D03*
X15240000Y-40640000D03*
%TO.N,Net-(R5-Pad2)*%
X27940000Y-41910000D03*
X21590000Y-60960000D03*
X27940000Y-58420000D03*
%TO.N,Net-(R14-Pad2)*%
X12700000Y-62230000D03*
X19050000Y-63500000D03*
%TO.N,Net-(R15-Pad1)*%
X15240000Y-53340000D03*
%TO.N,Net-(LED3-Pad1)*%
X18528989Y-54610000D03*
%TO.N,Net-(P2-Pad3)*%
X21590000Y-53975000D03*
%TO.N,Net-(P3-Pad3)*%
X10160000Y-80010000D03*
%TD*%
D18*
%TO.N,+12V*%
X2540000Y-71120000D02*
X2385489Y-70965489D01*
X2385489Y-44295489D02*
X3500978Y-43180000D01*
X17234500Y-48260000D02*
X17234500Y-44965500D01*
X19085020Y-43114980D02*
X17760000Y-44440000D01*
X22860000Y-10520000D02*
X19085020Y-14294980D01*
X2385489Y-70965489D02*
X2385489Y-44295489D01*
X19085020Y-14294980D02*
X19085020Y-43114980D01*
X2540000Y-77643440D02*
X2540000Y-71120000D01*
X6350000Y-81453440D02*
X2540000Y-77643440D01*
X3500978Y-43180000D02*
X3810000Y-43180000D01*
X17234500Y-44965500D02*
X17760000Y-44440000D01*
X6350000Y-85090000D02*
X6350000Y-81453440D01*
%TO.N,Earth*%
X27940000Y-41185489D02*
X27940000Y-33020000D01*
X7620000Y-13620000D02*
X7620000Y-30485849D01*
X28664511Y-41609897D02*
X28240103Y-41185489D01*
X21240000Y-93980000D02*
X21240000Y-93630000D01*
X16490000Y-59710000D02*
X16490000Y-58420000D01*
X7620000Y-30485849D02*
X6738224Y-31367625D01*
X24130000Y-54630000D02*
X24130000Y-57980000D01*
X12740000Y-63460000D02*
X16490000Y-59710000D01*
X27940000Y-42634511D02*
X28240103Y-42634511D01*
X23475000Y-49530000D02*
X23475000Y-47645000D01*
X27940000Y-44450000D02*
X27940000Y-42634511D01*
X12740000Y-85050000D02*
X12740000Y-63460000D01*
X28240103Y-42634511D02*
X28664511Y-42210103D01*
X28664511Y-42210103D02*
X28664511Y-41609897D01*
X21240000Y-93630000D02*
X12700000Y-85090000D01*
X3850000Y-80490000D02*
X3810000Y-80450000D01*
X23475000Y-47645000D02*
X24130000Y-46990000D01*
X28240103Y-41185489D02*
X27940000Y-41185489D01*
X23475000Y-49530000D02*
X23475000Y-53975000D01*
X3850000Y-85090000D02*
X3850000Y-80490000D01*
X23475000Y-53975000D02*
X24130000Y-54630000D01*
X12700000Y-85090000D02*
X12740000Y-85050000D01*
%TO.N,-12V*%
X10200000Y-84667722D02*
X10200000Y-85090000D01*
X17760000Y-29190000D02*
X16510000Y-27940000D01*
X16414031Y-46840583D02*
X16414031Y-43275969D01*
X16510000Y-21590000D02*
X17780000Y-20320000D01*
X16510000Y-49263440D02*
X15875000Y-48628440D01*
X5080000Y-79547722D02*
X10200000Y-84667722D01*
X17055489Y-34835489D02*
X17780000Y-35560000D01*
X16510000Y-52070000D02*
X16510000Y-49263440D01*
X16414031Y-43275969D02*
X17760000Y-41930000D01*
X5080000Y-55880000D02*
X5080000Y-79547722D01*
X16510000Y-27940000D02*
X16510000Y-21590000D01*
X17760000Y-41930000D02*
X17760000Y-36820000D01*
X15875000Y-48628440D02*
X15875000Y-47379614D01*
X15825489Y-34835489D02*
X17055489Y-34835489D01*
X17760000Y-36820000D02*
X17760000Y-29190000D01*
X14010000Y-33020000D02*
X15825489Y-34835489D01*
X15875000Y-47379614D02*
X16414031Y-46840583D01*
%TO.N,Net-(D1-Pad1)*%
X8515489Y-895489D02*
X13970000Y-6350000D01*
X7071368Y-895489D02*
X8515489Y-895489D01*
X5234511Y-2732346D02*
X7071368Y-895489D01*
X5234511Y-20165489D02*
X5234511Y-2732346D01*
X3810000Y-21590000D02*
X5234511Y-20165489D01*
%TO.N,Net-(D3-Pad1)*%
X7577551Y-44492449D02*
X6895489Y-43810387D01*
X18325500Y-46265500D02*
X18415000Y-46355000D01*
X6895489Y-40094511D02*
X7620000Y-39370000D01*
X18415000Y-50165000D02*
X17780000Y-50800000D01*
X6895489Y-43810387D02*
X6895489Y-40094511D01*
X18415000Y-46355000D02*
X18415000Y-50165000D01*
%TO.N,Net-(J1-Pad3)*%
X6445969Y-47529031D02*
X5918489Y-48056511D01*
X5918489Y-48056511D02*
X5918489Y-51100271D01*
X5994980Y-3845020D02*
X5994980Y-31648980D01*
X10683440Y-57980000D02*
X11430000Y-57980000D01*
X8706511Y-55476511D02*
X9033489Y-55803489D01*
X9033489Y-55803489D02*
X9033489Y-56330049D01*
X5994980Y-31648980D02*
X6445969Y-32099969D01*
X9033489Y-56330049D02*
X10683440Y-57980000D01*
X7620000Y-2220000D02*
X5994980Y-3845020D01*
X6445969Y-32099969D02*
X6445969Y-47529031D01*
X5918489Y-51100271D02*
X8706511Y-53888293D01*
X8706511Y-53888293D02*
X8706511Y-55476511D01*
%TO.N,Net-(J2-Pad3)*%
X20586560Y-57980000D02*
X21590000Y-57980000D01*
X20320000Y-53243397D02*
X19253500Y-54309897D01*
X19834211Y-45564511D02*
X19499520Y-45899202D01*
X20320000Y-51806678D02*
X20320000Y-53243397D01*
X19499520Y-50986198D02*
X20320000Y-51806678D01*
X24485020Y-13868123D02*
X24130000Y-14223143D01*
X21434511Y-44895789D02*
X20765789Y-45564511D01*
X20765789Y-45564511D02*
X19834211Y-45564511D01*
X24485020Y-3845020D02*
X24485020Y-13868123D01*
X24130000Y-33149589D02*
X21434511Y-35845078D01*
X19253500Y-54309897D02*
X19253500Y-56646940D01*
X21434511Y-35845078D02*
X21434511Y-44895789D01*
X19253500Y-56646940D02*
X20586560Y-57980000D01*
X22860000Y-2220000D02*
X24485020Y-3845020D01*
X19499520Y-45899202D02*
X19499520Y-50986198D01*
X24130000Y-14223143D02*
X24130000Y-33149589D01*
%TO.N,Net-(P1-Pad2)*%
X7620000Y-41910000D02*
X8565969Y-40964031D01*
X8565969Y-40964031D02*
X8565969Y-33845969D01*
X8565969Y-33845969D02*
X7620000Y-32900000D01*
%TO.N,Net-(P2-Pad2)*%
X15964511Y-43695489D02*
X15964511Y-40339897D01*
X16510000Y-37120300D02*
X16510000Y-35560000D01*
X15964511Y-40339897D02*
X15669520Y-40044906D01*
X15669520Y-37960780D02*
X16510000Y-37120300D01*
X15669520Y-40044906D02*
X15669520Y-37960780D01*
X15220000Y-44440000D02*
X15964511Y-43695489D01*
%TO.N,Net-(P3-Pad2)*%
X15240000Y-78620000D02*
X16220411Y-78620000D01*
X17576511Y-53746978D02*
X19050000Y-52273489D01*
X19050000Y-52273489D02*
X19050000Y-43785718D01*
X17576511Y-77263900D02*
X17576511Y-53746978D01*
X16220411Y-78620000D02*
X17576511Y-77263900D01*
X20300000Y-42535718D02*
X20300000Y-36820000D01*
X19050000Y-43785718D02*
X20300000Y-42535718D01*
%TO.N,Net-(R1-Pad2)*%
X13970000Y-49530000D02*
X13970000Y-48260000D01*
X13970000Y-48260000D02*
X15240000Y-46990000D01*
X3810000Y-57590000D02*
X3810000Y-60520000D01*
X3810000Y-53340000D02*
X5080000Y-52070000D01*
X3810000Y-57590000D02*
X3810000Y-53340000D01*
%TO.N,Net-(R2-Pad2)*%
X11613489Y-45506511D02*
X11613489Y-52252053D01*
X14739137Y-55377701D02*
X15742299Y-55377701D01*
X26670000Y-57590000D02*
X26670000Y-60520000D01*
X11613489Y-52252053D02*
X14739137Y-55377701D01*
X12680000Y-44440000D02*
X11613489Y-45506511D01*
%TO.N,Net-(LED1-Pad1)*%
X28206031Y-63766031D02*
X26670000Y-62230000D01*
X28206031Y-74930000D02*
X28206031Y-63766031D01*
X25216511Y-84466511D02*
X27120049Y-84466511D01*
X24130000Y-83380000D02*
X25216511Y-84466511D01*
X28206031Y-83380529D02*
X28206031Y-74930000D01*
X27120049Y-84466511D02*
X28206031Y-83380529D01*
%TO.N,Net-(R13-Pad2)*%
X15240000Y-40640000D02*
X15220000Y-40620000D01*
X5234511Y-40794511D02*
X5389022Y-40640000D01*
X6350000Y-52167500D02*
X3810000Y-49627500D01*
X3810000Y-49090000D02*
X5234511Y-47665489D01*
X3810000Y-49627500D02*
X3810000Y-49090000D01*
X6350000Y-57980000D02*
X6350000Y-52167500D01*
X5234511Y-47665489D02*
X5234511Y-40794511D01*
X15220000Y-40620000D02*
X15220000Y-36820000D01*
X5389022Y-40640000D02*
X5625500Y-40640000D01*
%TO.N,Net-(R5-Pad2)*%
X27119520Y-42730480D02*
X27940000Y-41910000D01*
X27756511Y-48639951D02*
X27119520Y-48002960D01*
X23043489Y-68323489D02*
X23043489Y-66396929D01*
X27658280Y-58138280D02*
X27756511Y-58040049D01*
X21590000Y-64943440D02*
X21590000Y-60960000D01*
X27119520Y-48002960D02*
X27119520Y-42730480D01*
X24130000Y-74490000D02*
X26670000Y-71950000D01*
X23043489Y-66396929D02*
X21590000Y-64943440D01*
X24130000Y-80450000D02*
X24130000Y-74490000D01*
X27940000Y-58420000D02*
X27658280Y-58138280D01*
X27756511Y-58040049D02*
X27756511Y-48639951D01*
X26670000Y-71950000D02*
X23043489Y-68323489D01*
%TO.N,Net-(R6-Pad2)*%
X25400000Y-46709022D02*
X25400000Y-69593489D01*
X27120049Y-70863489D02*
X27756511Y-71499951D01*
X27756511Y-71499951D02*
X27756511Y-79363489D01*
X26670000Y-70863489D02*
X27120049Y-70863489D01*
X27756511Y-79363489D02*
X26670000Y-80450000D01*
X24255489Y-45564511D02*
X25400000Y-46709022D01*
X24255489Y-37944511D02*
X24255489Y-45564511D01*
X26670000Y-83380000D02*
X26670000Y-80450000D01*
X25380000Y-36820000D02*
X24255489Y-37944511D01*
X25400000Y-69593489D02*
X26670000Y-70863489D01*
%TO.N,Net-(R14-Pad2)*%
X15240000Y-56514282D02*
X15240000Y-59690000D01*
X15240000Y-59690000D02*
X12700000Y-62230000D01*
X12680000Y-41900000D02*
X10140000Y-44440000D01*
X10140000Y-44440000D02*
X11163969Y-45463969D01*
X11163969Y-52438251D02*
X15240000Y-56514282D01*
X11163969Y-45463969D02*
X11163969Y-52438251D01*
X19050000Y-63500000D02*
X19050000Y-66480000D01*
X12680000Y-36820000D02*
X12680000Y-41900000D01*
%TO.N,Net-(R15-Pad1)*%
X15240000Y-50800000D02*
X15047630Y-50800000D01*
X14155158Y-52255158D02*
X15240000Y-53340000D01*
X15047630Y-50800000D02*
X14155158Y-51692472D01*
X14155158Y-51692472D02*
X14155158Y-52255158D01*
%TO.N,Net-(LED2-Pad1)*%
X7620000Y-65210000D02*
X7620000Y-55880000D01*
X6350000Y-66480000D02*
X7620000Y-65210000D01*
%TO.N,Net-(LED3-Pad1)*%
X18528989Y-57458989D02*
X19050000Y-57980000D01*
X18528989Y-54610000D02*
X18528989Y-57458989D01*
%TO.N,Net-(P1-Pad3)*%
X9015489Y-43974211D02*
X9015489Y-44905789D01*
X12700000Y-54610000D02*
X12700000Y-60304282D01*
X3810000Y-69020000D02*
X3810000Y-71950000D01*
X10714449Y-46604749D02*
X10714449Y-52624449D01*
X10714449Y-52624449D02*
X12700000Y-54610000D01*
X11430000Y-34210000D02*
X11430000Y-41559700D01*
X9015489Y-44905789D02*
X10714449Y-46604749D01*
X10120000Y-32900000D02*
X11430000Y-34210000D01*
X11430000Y-41559700D02*
X9015489Y-43974211D01*
X11430000Y-61574282D02*
X11430000Y-66480000D01*
X12700000Y-60304282D02*
X11430000Y-61574282D01*
%TO.N,Net-(P2-Pad3)*%
X21590000Y-56443440D02*
X22676511Y-57529951D01*
X22676511Y-65026511D02*
X24130000Y-66480000D01*
X26670000Y-34210000D02*
X25360000Y-32900000D01*
X26670000Y-49090000D02*
X26670000Y-34210000D01*
X21590000Y-53975000D02*
X21590000Y-56443440D01*
X22676511Y-57529951D02*
X22676511Y-65026511D01*
%TO.N,Net-(P3-Pad3)*%
X17740000Y-78620000D02*
X21470000Y-78620000D01*
X8890000Y-78740000D02*
X10160000Y-80010000D01*
X22860000Y-85010000D02*
X22860000Y-80010000D01*
X22860000Y-80010000D02*
X22860000Y-73220000D01*
X24130000Y-86280000D02*
X22860000Y-85010000D01*
X8890000Y-66480000D02*
X8890000Y-78740000D01*
X24130000Y-91880000D02*
X24130000Y-86280000D01*
X21470000Y-78620000D02*
X22860000Y-80010000D01*
X22860000Y-73220000D02*
X24130000Y-71950000D01*
%TD*%
M02*
