%TF.GenerationSoftware,KiCad,Pcbnew,(6.0.8)*%
%TF.CreationDate,2022-10-19T15:09:31+01:00*%
%TF.ProjectId,kompari,6b6f6d70-6172-4692-9e6b-696361645f70,rev?*%
%TF.SameCoordinates,Original*%
%TF.FileFunction,Profile,NP*%
%FSLAX46Y46*%
G04 Gerber Fmt 4.6, Leading zero omitted, Abs format (unit mm)*
G04 Created by KiCad (PCBNEW (6.0.8)) date 2022-10-19 15:09:31*
%MOMM*%
%LPD*%
G01*
G04 APERTURE LIST*
%TA.AperFunction,Profile*%
%ADD10C,0.100000*%
%TD*%
%TA.AperFunction,Profile*%
%ADD11C,0.120000*%
%TD*%
G04 APERTURE END LIST*
D10*
X1016000Y0D02*
X29464000Y0D01*
X29464000Y0D02*
X29464000Y-100000000D01*
X29464000Y-100000000D02*
X1016000Y-100000000D01*
X1016000Y-100000000D02*
X1016000Y0D01*
D11*
%TO.C,P3*%
X19140000Y-72255000D02*
X20940000Y-72255000D01*
X20940000Y-72255000D02*
X20940000Y-69885000D01*
X20940000Y-69885000D02*
X19140000Y-69885000D01*
X19140000Y-69885000D02*
X19140000Y-72255000D01*
X9540000Y-72305000D02*
X11340000Y-72305000D01*
X11340000Y-72305000D02*
X11340000Y-69935000D01*
X11340000Y-69935000D02*
X9540000Y-69935000D01*
X9540000Y-69935000D02*
X9540000Y-72305000D01*
%TO.C,P2*%
X17160000Y-26585000D02*
X18960000Y-26585000D01*
X18960000Y-26585000D02*
X18960000Y-24215000D01*
X18960000Y-24215000D02*
X17160000Y-24215000D01*
X17160000Y-24215000D02*
X17160000Y-26585000D01*
X26760000Y-26535000D02*
X28560000Y-26535000D01*
X28560000Y-26535000D02*
X28560000Y-24165000D01*
X28560000Y-24165000D02*
X26760000Y-24165000D01*
X26760000Y-24165000D02*
X26760000Y-26535000D01*
%TO.C,P1*%
X11520000Y-26535000D02*
X13320000Y-26535000D01*
X13320000Y-26535000D02*
X13320000Y-24165000D01*
X13320000Y-24165000D02*
X11520000Y-24165000D01*
X11520000Y-24165000D02*
X11520000Y-26535000D01*
X1920000Y-26585000D02*
X3720000Y-26585000D01*
X3720000Y-26585000D02*
X3720000Y-24215000D01*
X3720000Y-24215000D02*
X1920000Y-24215000D01*
X1920000Y-24215000D02*
X1920000Y-26585000D01*
%TD*%
M02*
